ISO-10303-21;
HEADER;
FILE_DESCRIPTION(('FreeCAD Model'),'2;1');
FILE_NAME('Open CASCADE Shape Model','2026-04-04T18:12:54',('Author'),(
    ''),'Open CASCADE STEP processor 7.8','FreeCAD','Unknown');
FILE_SCHEMA(('AUTOMOTIVE_DESIGN { 1 0 10303 214 1 1 1 1 }'));
ENDSEC;
DATA;
#1 = APPLICATION_PROTOCOL_DEFINITION('international standard',
  'automotive_design',2000,#2);
#2 = APPLICATION_CONTEXT(
  'core data for automotive mechanical design processes');
#3 = SHAPE_DEFINITION_REPRESENTATION(#4,#10);
#4 = PRODUCT_DEFINITION_SHAPE('','',#5);
#5 = PRODUCT_DEFINITION('design','',#6,#9);
#6 = PRODUCT_DEFINITION_FORMATION('','',#7);
#7 = PRODUCT('Fillet','Fillet','',(#8));
#8 = PRODUCT_CONTEXT('',#2,'mechanical');
#9 = PRODUCT_DEFINITION_CONTEXT('part definition',#2,'design');
#10 = ADVANCED_BREP_SHAPE_REPRESENTATION('',(#11,#15),#1529);
#11 = AXIS2_PLACEMENT_3D('',#12,#13,#14);
#12 = CARTESIAN_POINT('',(0.,0.,0.));
#13 = DIRECTION('',(0.,0.,1.));
#14 = DIRECTION('',(1.,0.,-0.));
#15 = MANIFOLD_SOLID_BREP('',#16);
#16 = CLOSED_SHELL('',(#17,#254,#285,#310,#335,#392,#449,#474,#499,#516,
    #559,#584,#627,#652,#695,#737,#777,#802,#840,#865,#903,#928,#993,
    #1018,#1076,#1119,#1157,#1190,#1219,#1280,#1301,#1311,#1327,#1338,
    #1348,#1364,#1381,#1392,#1423,#1434,#1451,#1468,#1479,#1491,#1502,
    #1518));
#17 = ADVANCED_FACE('',(#18,#88,#99,#110,#121,#132,#143,#238),#249,.F.);
#18 = FACE_BOUND('',#19,.F.);
#19 = EDGE_LOOP('',(#20,#30,#39,#47,#56,#64,#73,#81));
#20 = ORIENTED_EDGE('',*,*,#21,.T.);
#21 = EDGE_CURVE('',#22,#24,#26,.T.);
#22 = VERTEX_POINT('',#23);
#23 = CARTESIAN_POINT('',(12.5,0.,-2.75));
#24 = VERTEX_POINT('',#25);
#25 = CARTESIAN_POINT('',(12.5,0.,2.75));
#26 = LINE('',#27,#28);
#27 = CARTESIAN_POINT('',(12.5,0.,-4.75));
#28 = VECTOR('',#29,1.);
#29 = DIRECTION('',(0.,0.,1.));
#30 = ORIENTED_EDGE('',*,*,#31,.F.);
#31 = EDGE_CURVE('',#32,#24,#34,.T.);
#32 = VERTEX_POINT('',#33);
#33 = CARTESIAN_POINT('',(10.5,0.,4.75));
#34 = CIRCLE('',#35,2.);
#35 = AXIS2_PLACEMENT_3D('',#36,#37,#38);
#36 = CARTESIAN_POINT('',(10.5,0.,2.75));
#37 = DIRECTION('',(0.,1.,0.));
#38 = DIRECTION('',(0.,-0.,1.));
#39 = ORIENTED_EDGE('',*,*,#40,.T.);
#40 = EDGE_CURVE('',#32,#41,#43,.T.);
#41 = VERTEX_POINT('',#42);
#42 = CARTESIAN_POINT('',(-10.5,0.,4.75));
#43 = LINE('',#44,#45);
#44 = CARTESIAN_POINT('',(12.5,0.,4.75));
#45 = VECTOR('',#46,1.);
#46 = DIRECTION('',(-1.,0.,0.));
#47 = ORIENTED_EDGE('',*,*,#48,.T.);
#48 = EDGE_CURVE('',#41,#49,#51,.T.);
#49 = VERTEX_POINT('',#50);
#50 = CARTESIAN_POINT('',(-12.5,0.,2.75));
#51 = CIRCLE('',#52,2.);
#52 = AXIS2_PLACEMENT_3D('',#53,#54,#55);
#53 = CARTESIAN_POINT('',(-10.5,0.,2.75));
#54 = DIRECTION('',(0.,-1.,0.));
#55 = DIRECTION('',(0.,-0.,-1.));
#56 = ORIENTED_EDGE('',*,*,#57,.F.);
#57 = EDGE_CURVE('',#58,#49,#60,.T.);
#58 = VERTEX_POINT('',#59);
#59 = CARTESIAN_POINT('',(-12.5,0.,-2.75));
#60 = LINE('',#61,#62);
#61 = CARTESIAN_POINT('',(-12.5,0.,-4.75));
#62 = VECTOR('',#63,1.);
#63 = DIRECTION('',(0.,0.,1.));
#64 = ORIENTED_EDGE('',*,*,#65,.F.);
#65 = EDGE_CURVE('',#66,#58,#68,.T.);
#66 = VERTEX_POINT('',#67);
#67 = CARTESIAN_POINT('',(-10.5,0.,-4.75));
#68 = CIRCLE('',#69,2.);
#69 = AXIS2_PLACEMENT_3D('',#70,#71,#72);
#70 = CARTESIAN_POINT('',(-10.5,0.,-2.75));
#71 = DIRECTION('',(-0.,1.,0.));
#72 = DIRECTION('',(0.,0.,-1.));
#73 = ORIENTED_EDGE('',*,*,#74,.F.);
#74 = EDGE_CURVE('',#75,#66,#77,.T.);
#75 = VERTEX_POINT('',#76);
#76 = CARTESIAN_POINT('',(10.5,0.,-4.75));
#77 = LINE('',#78,#79);
#78 = CARTESIAN_POINT('',(12.5,0.,-4.75));
#79 = VECTOR('',#80,1.);
#80 = DIRECTION('',(-1.,0.,0.));
#81 = ORIENTED_EDGE('',*,*,#82,.T.);
#82 = EDGE_CURVE('',#75,#22,#83,.T.);
#83 = CIRCLE('',#84,2.);
#84 = AXIS2_PLACEMENT_3D('',#85,#86,#87);
#85 = CARTESIAN_POINT('',(10.5,0.,-2.75));
#86 = DIRECTION('',(-0.,-1.,0.));
#87 = DIRECTION('',(0.,-0.,1.));
#88 = FACE_BOUND('',#89,.F.);
#89 = EDGE_LOOP('',(#90));
#90 = ORIENTED_EDGE('',*,*,#91,.T.);
#91 = EDGE_CURVE('',#92,#92,#94,.T.);
#92 = VERTEX_POINT('',#93);
#93 = CARTESIAN_POINT('',(7.55,5.639932965096E-16,2.54));
#94 = CIRCLE('',#95,1.2);
#95 = AXIS2_PLACEMENT_3D('',#96,#97,#98);
#96 = CARTESIAN_POINT('',(6.35,5.639932965096E-16,2.54));
#97 = DIRECTION('',(0.,1.,-2.22044604925E-16));
#98 = DIRECTION('',(1.,0.,0.));
#99 = FACE_BOUND('',#100,.F.);
#100 = EDGE_LOOP('',(#101));
#101 = ORIENTED_EDGE('',*,*,#102,.T.);
#102 = EDGE_CURVE('',#103,#103,#105,.T.);
#103 = VERTEX_POINT('',#104);
#104 = CARTESIAN_POINT('',(11.45,0.,0.));
#105 = CIRCLE('',#106,1.45);
#106 = AXIS2_PLACEMENT_3D('',#107,#108,#109);
#107 = CARTESIAN_POINT('',(10.,0.,0.));
#108 = DIRECTION('',(0.,1.,-2.22044604925E-16));
#109 = DIRECTION('',(1.,0.,0.));
#110 = FACE_BOUND('',#111,.F.);
#111 = EDGE_LOOP('',(#112));
#112 = ORIENTED_EDGE('',*,*,#113,.T.);
#113 = EDGE_CURVE('',#114,#114,#116,.T.);
#114 = VERTEX_POINT('',#115);
#115 = CARTESIAN_POINT('',(-5.15,5.639932965096E-16,2.54));
#116 = CIRCLE('',#117,1.2);
#117 = AXIS2_PLACEMENT_3D('',#118,#119,#120);
#118 = CARTESIAN_POINT('',(-6.35,5.639932965096E-16,2.54));
#119 = DIRECTION('',(0.,1.,-2.22044604925E-16));
#120 = DIRECTION('',(1.,0.,0.));
#121 = FACE_BOUND('',#122,.F.);
#122 = EDGE_LOOP('',(#123));
#123 = ORIENTED_EDGE('',*,*,#124,.T.);
#124 = EDGE_CURVE('',#125,#125,#127,.T.);
#125 = VERTEX_POINT('',#126);
#126 = CARTESIAN_POINT('',(-8.55,0.,0.));
#127 = CIRCLE('',#128,1.45);
#128 = AXIS2_PLACEMENT_3D('',#129,#130,#131);
#129 = CARTESIAN_POINT('',(-10.,0.,0.));
#130 = DIRECTION('',(0.,1.,-2.22044604925E-16));
#131 = DIRECTION('',(1.,0.,0.));
#132 = FACE_BOUND('',#133,.F.);
#133 = EDGE_LOOP('',(#134));
#134 = ORIENTED_EDGE('',*,*,#135,.T.);
#135 = EDGE_CURVE('',#136,#136,#138,.T.);
#136 = VERTEX_POINT('',#137);
#137 = CARTESIAN_POINT('',(7.55,-5.639932965096E-16,-2.54));
#138 = CIRCLE('',#139,1.2);
#139 = AXIS2_PLACEMENT_3D('',#140,#141,#142);
#140 = CARTESIAN_POINT('',(6.35,-5.639932965096E-16,-2.54));
#141 = DIRECTION('',(0.,1.,-2.22044604925E-16));
#142 = DIRECTION('',(1.,0.,0.));
#143 = FACE_BOUND('',#144,.F.);
#144 = EDGE_LOOP('',(#145,#156,#165,#173,#181,#189,#198,#206,#215,#223,
    #232));
#145 = ORIENTED_EDGE('',*,*,#146,.T.);
#146 = EDGE_CURVE('',#147,#149,#151,.T.);
#147 = VERTEX_POINT('',#148);
#148 = CARTESIAN_POINT('',(2.61,5.639932965096E-16,2.54));
#149 = VERTEX_POINT('',#150);
#150 = CARTESIAN_POINT('',(5.01,5.639932965096E-16,2.54));
#151 = CIRCLE('',#152,1.2);
#152 = AXIS2_PLACEMENT_3D('',#153,#154,#155);
#153 = CARTESIAN_POINT('',(3.81,5.639932965096E-16,2.54));
#154 = DIRECTION('',(0.,1.,-2.22044604925E-16));
#155 = DIRECTION('',(1.,0.,0.));
#156 = ORIENTED_EDGE('',*,*,#157,.T.);
#157 = EDGE_CURVE('',#149,#158,#160,.T.);
#158 = VERTEX_POINT('',#159);
#159 = CARTESIAN_POINT('',(4.65,3.737074180276E-16,1.683028588575));
#160 = CIRCLE('',#161,1.2);
#161 = AXIS2_PLACEMENT_3D('',#162,#163,#164);
#162 = CARTESIAN_POINT('',(3.81,5.639932965096E-16,2.54));
#163 = DIRECTION('',(0.,1.,-2.22044604925E-16));
#164 = DIRECTION('',(1.,0.,0.));
#165 = ORIENTED_EDGE('',*,*,#166,.T.);
#166 = EDGE_CURVE('',#158,#167,#169,.T.);
#167 = VERTEX_POINT('',#168);
#168 = CARTESIAN_POINT('',(4.65,-8.482103908136E-16,-3.82));
#169 = LINE('',#170,#171);
#170 = CARTESIAN_POINT('',(4.65,2.84217094304E-16,1.28));
#171 = VECTOR('',#172,1.);
#172 = DIRECTION('',(0.,-2.22044604925E-16,-1.));
#173 = ORIENTED_EDGE('',*,*,#174,.T.);
#174 = EDGE_CURVE('',#167,#175,#177,.T.);
#175 = VERTEX_POINT('',#176);
#176 = CARTESIAN_POINT('',(-4.65,-8.482103908136E-16,-3.82));
#177 = LINE('',#178,#179);
#178 = CARTESIAN_POINT('',(4.65,-8.482103908136E-16,-3.82));
#179 = VECTOR('',#180,1.);
#180 = DIRECTION('',(-1.,0.,0.));
#181 = ORIENTED_EDGE('',*,*,#182,.T.);
#182 = EDGE_CURVE('',#175,#183,#185,.T.);
#183 = VERTEX_POINT('',#184);
#184 = CARTESIAN_POINT('',(-4.65,3.737074180276E-16,1.683028588575));
#185 = LINE('',#186,#187);
#186 = CARTESIAN_POINT('',(-4.65,2.84217094304E-16,1.28));
#187 = VECTOR('',#188,1.);
#188 = DIRECTION('',(0.,2.22044604925E-16,1.));
#189 = ORIENTED_EDGE('',*,*,#190,.T.);
#190 = EDGE_CURVE('',#183,#191,#193,.T.);
#191 = VERTEX_POINT('',#192);
#192 = CARTESIAN_POINT('',(-2.61,5.639932965096E-16,2.54));
#193 = CIRCLE('',#194,1.2);
#194 = AXIS2_PLACEMENT_3D('',#195,#196,#197);
#195 = CARTESIAN_POINT('',(-3.81,5.639932965096E-16,2.54));
#196 = DIRECTION('',(0.,1.,-2.22044604925E-16));
#197 = DIRECTION('',(1.,0.,0.));
#198 = ORIENTED_EDGE('',*,*,#199,.T.);
#199 = EDGE_CURVE('',#191,#200,#202,.T.);
#200 = VERTEX_POINT('',#201);
#201 = CARTESIAN_POINT('',(-2.47,5.639932965096E-16,2.54));
#202 = LINE('',#203,#204);
#203 = CARTESIAN_POINT('',(-4.65,5.639932965096E-16,2.54));
#204 = VECTOR('',#205,1.);
#205 = DIRECTION('',(1.,0.,0.));
#206 = ORIENTED_EDGE('',*,*,#207,.T.);
#207 = EDGE_CURVE('',#200,#208,#210,.T.);
#208 = VERTEX_POINT('',#209);
#209 = CARTESIAN_POINT('',(-7.E-02,5.639932965096E-16,2.54));
#210 = CIRCLE('',#211,1.2);
#211 = AXIS2_PLACEMENT_3D('',#212,#213,#214);
#212 = CARTESIAN_POINT('',(-1.27,5.639932965096E-16,2.54));
#213 = DIRECTION('',(0.,1.,-2.22044604925E-16));
#214 = DIRECTION('',(1.,0.,0.));
#215 = ORIENTED_EDGE('',*,*,#216,.T.);
#216 = EDGE_CURVE('',#208,#217,#219,.T.);
#217 = VERTEX_POINT('',#218);
#218 = CARTESIAN_POINT('',(7.E-02,5.639932965096E-16,2.54));
#219 = LINE('',#220,#221);
#220 = CARTESIAN_POINT('',(-4.65,5.639932965096E-16,2.54));
#221 = VECTOR('',#222,1.);
#222 = DIRECTION('',(1.,0.,0.));
#223 = ORIENTED_EDGE('',*,*,#224,.T.);
#224 = EDGE_CURVE('',#217,#225,#227,.T.);
#225 = VERTEX_POINT('',#226);
#226 = CARTESIAN_POINT('',(2.47,5.639932965096E-16,2.54));
#227 = CIRCLE('',#228,1.2);
#228 = AXIS2_PLACEMENT_3D('',#229,#230,#231);
#229 = CARTESIAN_POINT('',(1.27,5.639932965096E-16,2.54));
#230 = DIRECTION('',(0.,1.,-2.22044604925E-16));
#231 = DIRECTION('',(1.,0.,0.));
#232 = ORIENTED_EDGE('',*,*,#233,.T.);
#233 = EDGE_CURVE('',#225,#147,#234,.T.);
#234 = LINE('',#235,#236);
#235 = CARTESIAN_POINT('',(-4.65,5.639932965096E-16,2.54));
#236 = VECTOR('',#237,1.);
#237 = DIRECTION('',(1.,0.,0.));
#238 = FACE_BOUND('',#239,.F.);
#239 = EDGE_LOOP('',(#240));
#240 = ORIENTED_EDGE('',*,*,#241,.T.);
#241 = EDGE_CURVE('',#242,#242,#244,.T.);
#242 = VERTEX_POINT('',#243);
#243 = CARTESIAN_POINT('',(-5.15,-5.639932965096E-16,-2.54));
#244 = CIRCLE('',#245,1.2);
#245 = AXIS2_PLACEMENT_3D('',#246,#247,#248);
#246 = CARTESIAN_POINT('',(-6.35,-5.639932965096E-16,-2.54));
#247 = DIRECTION('',(0.,1.,-2.22044604925E-16));
#248 = DIRECTION('',(1.,0.,0.));
#249 = PLANE('',#250);
#250 = AXIS2_PLACEMENT_3D('',#251,#252,#253);
#251 = CARTESIAN_POINT('',(12.5,0.,-4.75));
#252 = DIRECTION('',(0.,-1.,0.));
#253 = DIRECTION('',(-1.,0.,0.));
#254 = ADVANCED_FACE('',(#255),#280,.F.);
#255 = FACE_BOUND('',#256,.F.);
#256 = EDGE_LOOP('',(#257,#267,#273,#274));
#257 = ORIENTED_EDGE('',*,*,#258,.T.);
#258 = EDGE_CURVE('',#259,#261,#263,.T.);
#259 = VERTEX_POINT('',#260);
#260 = CARTESIAN_POINT('',(12.5,-2.,-2.75));
#261 = VERTEX_POINT('',#262);
#262 = CARTESIAN_POINT('',(12.5,-2.,2.75));
#263 = LINE('',#264,#265);
#264 = CARTESIAN_POINT('',(12.5,-2.,-4.75));
#265 = VECTOR('',#266,1.);
#266 = DIRECTION('',(0.,0.,1.));
#267 = ORIENTED_EDGE('',*,*,#268,.T.);
#268 = EDGE_CURVE('',#261,#24,#269,.T.);
#269 = LINE('',#270,#271);
#270 = CARTESIAN_POINT('',(12.5,-2.,2.75));
#271 = VECTOR('',#272,1.);
#272 = DIRECTION('',(0.,1.,0.));
#273 = ORIENTED_EDGE('',*,*,#21,.F.);
#274 = ORIENTED_EDGE('',*,*,#275,.F.);
#275 = EDGE_CURVE('',#259,#22,#276,.T.);
#276 = LINE('',#277,#278);
#277 = CARTESIAN_POINT('',(12.5,-2.,-2.75));
#278 = VECTOR('',#279,1.);
#279 = DIRECTION('',(0.,1.,0.));
#280 = PLANE('',#281);
#281 = AXIS2_PLACEMENT_3D('',#282,#283,#284);
#282 = CARTESIAN_POINT('',(12.5,-2.,-4.75));
#283 = DIRECTION('',(-1.,0.,0.));
#284 = DIRECTION('',(0.,1.,0.));
#285 = ADVANCED_FACE('',(#286),#305,.T.);
#286 = FACE_BOUND('',#287,.F.);
#287 = EDGE_LOOP('',(#288,#297,#298,#299));
#288 = ORIENTED_EDGE('',*,*,#289,.T.);
#289 = EDGE_CURVE('',#290,#259,#292,.T.);
#290 = VERTEX_POINT('',#291);
#291 = CARTESIAN_POINT('',(10.5,-2.,-4.75));
#292 = CIRCLE('',#293,2.);
#293 = AXIS2_PLACEMENT_3D('',#294,#295,#296);
#294 = CARTESIAN_POINT('',(10.5,-2.,-2.75));
#295 = DIRECTION('',(-0.,-1.,0.));
#296 = DIRECTION('',(0.,-0.,1.));
#297 = ORIENTED_EDGE('',*,*,#275,.T.);
#298 = ORIENTED_EDGE('',*,*,#82,.F.);
#299 = ORIENTED_EDGE('',*,*,#300,.F.);
#300 = EDGE_CURVE('',#290,#75,#301,.T.);
#301 = LINE('',#302,#303);
#302 = CARTESIAN_POINT('',(10.5,-2.,-4.75));
#303 = VECTOR('',#304,1.);
#304 = DIRECTION('',(0.,1.,0.));
#305 = CYLINDRICAL_SURFACE('',#306,2.);
#306 = AXIS2_PLACEMENT_3D('',#307,#308,#309);
#307 = CARTESIAN_POINT('',(10.5,-2.,-2.75));
#308 = DIRECTION('',(0.,1.,0.));
#309 = DIRECTION('',(0.,0.,-1.));
#310 = ADVANCED_FACE('',(#311),#330,.T.);
#311 = FACE_BOUND('',#312,.T.);
#312 = EDGE_LOOP('',(#313,#322,#323,#324));
#313 = ORIENTED_EDGE('',*,*,#314,.T.);
#314 = EDGE_CURVE('',#315,#261,#317,.T.);
#315 = VERTEX_POINT('',#316);
#316 = CARTESIAN_POINT('',(10.5,-2.,4.75));
#317 = CIRCLE('',#318,2.);
#318 = AXIS2_PLACEMENT_3D('',#319,#320,#321);
#319 = CARTESIAN_POINT('',(10.5,-2.,2.75));
#320 = DIRECTION('',(0.,1.,0.));
#321 = DIRECTION('',(0.,-0.,1.));
#322 = ORIENTED_EDGE('',*,*,#268,.T.);
#323 = ORIENTED_EDGE('',*,*,#31,.F.);
#324 = ORIENTED_EDGE('',*,*,#325,.F.);
#325 = EDGE_CURVE('',#315,#32,#326,.T.);
#326 = LINE('',#327,#328);
#327 = CARTESIAN_POINT('',(10.5,-2.,4.75));
#328 = VECTOR('',#329,1.);
#329 = DIRECTION('',(0.,1.,0.));
#330 = CYLINDRICAL_SURFACE('',#331,2.);
#331 = AXIS2_PLACEMENT_3D('',#332,#333,#334);
#332 = CARTESIAN_POINT('',(10.5,-2.,2.75));
#333 = DIRECTION('',(0.,1.,0.));
#334 = DIRECTION('',(0.,-0.,1.));
#335 = ADVANCED_FACE('',(#336),#387,.F.);
#336 = FACE_BOUND('',#337,.F.);
#337 = EDGE_LOOP('',(#338,#346,#347,#348,#356,#364,#372,#381));
#338 = ORIENTED_EDGE('',*,*,#339,.T.);
#339 = EDGE_CURVE('',#340,#290,#342,.T.);
#340 = VERTEX_POINT('',#341);
#341 = CARTESIAN_POINT('',(6.,-2.,-4.75));
#342 = LINE('',#343,#344);
#343 = CARTESIAN_POINT('',(6.,-2.,-4.75));
#344 = VECTOR('',#345,1.);
#345 = DIRECTION('',(1.,0.,0.));
#346 = ORIENTED_EDGE('',*,*,#300,.T.);
#347 = ORIENTED_EDGE('',*,*,#74,.T.);
#348 = ORIENTED_EDGE('',*,*,#349,.T.);
#349 = EDGE_CURVE('',#66,#350,#352,.T.);
#350 = VERTEX_POINT('',#351);
#351 = CARTESIAN_POINT('',(-10.5,-2.,-4.75));
#352 = LINE('',#353,#354);
#353 = CARTESIAN_POINT('',(-10.5,0.,-4.75));
#354 = VECTOR('',#355,1.);
#355 = DIRECTION('',(0.,-1.,0.));
#356 = ORIENTED_EDGE('',*,*,#357,.T.);
#357 = EDGE_CURVE('',#350,#358,#360,.T.);
#358 = VERTEX_POINT('',#359);
#359 = CARTESIAN_POINT('',(-6.,-2.,-4.75));
#360 = LINE('',#361,#362);
#361 = CARTESIAN_POINT('',(-12.5,-2.,-4.75));
#362 = VECTOR('',#363,1.);
#363 = DIRECTION('',(1.,0.,0.));
#364 = ORIENTED_EDGE('',*,*,#365,.F.);
#365 = EDGE_CURVE('',#366,#358,#368,.T.);
#366 = VERTEX_POINT('',#367);
#367 = CARTESIAN_POINT('',(-6.,-9.015780150965,-4.75));
#368 = LINE('',#369,#370);
#369 = CARTESIAN_POINT('',(-6.,-9.015780150965,-4.75));
#370 = VECTOR('',#371,1.);
#371 = DIRECTION('',(0.,1.,0.));
#372 = ORIENTED_EDGE('',*,*,#373,.F.);
#373 = EDGE_CURVE('',#374,#366,#376,.T.);
#374 = VERTEX_POINT('',#375);
#375 = CARTESIAN_POINT('',(6.,-9.015780150965,-4.75));
#376 = CIRCLE('',#377,43.5);
#377 = AXIS2_PLACEMENT_3D('',#378,#379,#380);
#378 = CARTESIAN_POINT('',(0.,-52.1,-4.75));
#379 = DIRECTION('',(0.,0.,1.));
#380 = DIRECTION('',(1.,0.,0.));
#381 = ORIENTED_EDGE('',*,*,#382,.T.);
#382 = EDGE_CURVE('',#374,#340,#383,.T.);
#383 = LINE('',#384,#385);
#384 = CARTESIAN_POINT('',(6.,-9.015780150965,-4.75));
#385 = VECTOR('',#386,1.);
#386 = DIRECTION('',(0.,1.,0.));
#387 = PLANE('',#388);
#388 = AXIS2_PLACEMENT_3D('',#389,#390,#391);
#389 = CARTESIAN_POINT('',(-1.2E-15,-3.126637141027,-4.75));
#390 = DIRECTION('',(0.,0.,1.));
#391 = DIRECTION('',(1.,0.,0.));
#392 = ADVANCED_FACE('',(#393),#444,.T.);
#393 = FACE_BOUND('',#394,.T.);
#394 = EDGE_LOOP('',(#395,#403,#404,#405,#413,#421,#429,#438));
#395 = ORIENTED_EDGE('',*,*,#396,.T.);
#396 = EDGE_CURVE('',#397,#315,#399,.T.);
#397 = VERTEX_POINT('',#398);
#398 = CARTESIAN_POINT('',(6.,-2.,4.75));
#399 = LINE('',#400,#401);
#400 = CARTESIAN_POINT('',(6.,-2.,4.75));
#401 = VECTOR('',#402,1.);
#402 = DIRECTION('',(1.,0.,0.));
#403 = ORIENTED_EDGE('',*,*,#325,.T.);
#404 = ORIENTED_EDGE('',*,*,#40,.T.);
#405 = ORIENTED_EDGE('',*,*,#406,.T.);
#406 = EDGE_CURVE('',#41,#407,#409,.T.);
#407 = VERTEX_POINT('',#408);
#408 = CARTESIAN_POINT('',(-10.5,-2.,4.75));
#409 = LINE('',#410,#411);
#410 = CARTESIAN_POINT('',(-10.5,0.,4.75));
#411 = VECTOR('',#412,1.);
#412 = DIRECTION('',(0.,-1.,0.));
#413 = ORIENTED_EDGE('',*,*,#414,.T.);
#414 = EDGE_CURVE('',#407,#415,#417,.T.);
#415 = VERTEX_POINT('',#416);
#416 = CARTESIAN_POINT('',(-6.,-2.,4.75));
#417 = LINE('',#418,#419);
#418 = CARTESIAN_POINT('',(-12.5,-2.,4.75));
#419 = VECTOR('',#420,1.);
#420 = DIRECTION('',(1.,0.,0.));
#421 = ORIENTED_EDGE('',*,*,#422,.F.);
#422 = EDGE_CURVE('',#423,#415,#425,.T.);
#423 = VERTEX_POINT('',#424);
#424 = CARTESIAN_POINT('',(-6.,-9.015780150965,4.75));
#425 = LINE('',#426,#427);
#426 = CARTESIAN_POINT('',(-6.,-9.015780150965,4.75));
#427 = VECTOR('',#428,1.);
#428 = DIRECTION('',(0.,1.,0.));
#429 = ORIENTED_EDGE('',*,*,#430,.F.);
#430 = EDGE_CURVE('',#431,#423,#433,.T.);
#431 = VERTEX_POINT('',#432);
#432 = CARTESIAN_POINT('',(6.,-9.015780150965,4.75));
#433 = CIRCLE('',#434,43.5);
#434 = AXIS2_PLACEMENT_3D('',#435,#436,#437);
#435 = CARTESIAN_POINT('',(0.,-52.1,4.75));
#436 = DIRECTION('',(0.,0.,1.));
#437 = DIRECTION('',(1.,0.,0.));
#438 = ORIENTED_EDGE('',*,*,#439,.T.);
#439 = EDGE_CURVE('',#431,#397,#440,.T.);
#440 = LINE('',#441,#442);
#441 = CARTESIAN_POINT('',(6.,-9.015780150965,4.75));
#442 = VECTOR('',#443,1.);
#443 = DIRECTION('',(0.,1.,0.));
#444 = PLANE('',#445);
#445 = AXIS2_PLACEMENT_3D('',#446,#447,#448);
#446 = CARTESIAN_POINT('',(-1.2E-15,-3.126637141027,4.75));
#447 = DIRECTION('',(0.,0.,1.));
#448 = DIRECTION('',(1.,0.,0.));
#449 = ADVANCED_FACE('',(#450),#469,.T.);
#450 = FACE_BOUND('',#451,.F.);
#451 = EDGE_LOOP('',(#452,#453,#461,#468));
#452 = ORIENTED_EDGE('',*,*,#65,.T.);
#453 = ORIENTED_EDGE('',*,*,#454,.T.);
#454 = EDGE_CURVE('',#58,#455,#457,.T.);
#455 = VERTEX_POINT('',#456);
#456 = CARTESIAN_POINT('',(-12.5,-2.,-2.75));
#457 = LINE('',#458,#459);
#458 = CARTESIAN_POINT('',(-12.5,0.,-2.75));
#459 = VECTOR('',#460,1.);
#460 = DIRECTION('',(0.,-1.,0.));
#461 = ORIENTED_EDGE('',*,*,#462,.F.);
#462 = EDGE_CURVE('',#350,#455,#463,.T.);
#463 = CIRCLE('',#464,2.);
#464 = AXIS2_PLACEMENT_3D('',#465,#466,#467);
#465 = CARTESIAN_POINT('',(-10.5,-2.,-2.75));
#466 = DIRECTION('',(-0.,1.,0.));
#467 = DIRECTION('',(0.,0.,-1.));
#468 = ORIENTED_EDGE('',*,*,#349,.F.);
#469 = CYLINDRICAL_SURFACE('',#470,2.);
#470 = AXIS2_PLACEMENT_3D('',#471,#472,#473);
#471 = CARTESIAN_POINT('',(-10.5,0.,-2.75));
#472 = DIRECTION('',(0.,-1.,0.));
#473 = DIRECTION('',(-0.,-0.,-1.));
#474 = ADVANCED_FACE('',(#475),#494,.T.);
#475 = FACE_BOUND('',#476,.T.);
#476 = EDGE_LOOP('',(#477,#478,#486,#493));
#477 = ORIENTED_EDGE('',*,*,#48,.T.);
#478 = ORIENTED_EDGE('',*,*,#479,.T.);
#479 = EDGE_CURVE('',#49,#480,#482,.T.);
#480 = VERTEX_POINT('',#481);
#481 = CARTESIAN_POINT('',(-12.5,-2.,2.75));
#482 = LINE('',#483,#484);
#483 = CARTESIAN_POINT('',(-12.5,0.,2.75));
#484 = VECTOR('',#485,1.);
#485 = DIRECTION('',(0.,-1.,0.));
#486 = ORIENTED_EDGE('',*,*,#487,.F.);
#487 = EDGE_CURVE('',#407,#480,#488,.T.);
#488 = CIRCLE('',#489,2.);
#489 = AXIS2_PLACEMENT_3D('',#490,#491,#492);
#490 = CARTESIAN_POINT('',(-10.5,-2.,2.75));
#491 = DIRECTION('',(0.,-1.,0.));
#492 = DIRECTION('',(0.,-0.,-1.));
#493 = ORIENTED_EDGE('',*,*,#406,.F.);
#494 = CYLINDRICAL_SURFACE('',#495,2.);
#495 = AXIS2_PLACEMENT_3D('',#496,#497,#498);
#496 = CARTESIAN_POINT('',(-10.5,0.,2.75));
#497 = DIRECTION('',(0.,-1.,0.));
#498 = DIRECTION('',(0.,0.,1.));
#499 = ADVANCED_FACE('',(#500),#511,.F.);
#500 = FACE_BOUND('',#501,.F.);
#501 = EDGE_LOOP('',(#502,#503,#504,#510));
#502 = ORIENTED_EDGE('',*,*,#57,.T.);
#503 = ORIENTED_EDGE('',*,*,#479,.T.);
#504 = ORIENTED_EDGE('',*,*,#505,.F.);
#505 = EDGE_CURVE('',#455,#480,#506,.T.);
#506 = LINE('',#507,#508);
#507 = CARTESIAN_POINT('',(-12.5,-2.,-4.75));
#508 = VECTOR('',#509,1.);
#509 = DIRECTION('',(0.,0.,1.));
#510 = ORIENTED_EDGE('',*,*,#454,.F.);
#511 = PLANE('',#512);
#512 = AXIS2_PLACEMENT_3D('',#513,#514,#515);
#513 = CARTESIAN_POINT('',(-12.5,0.,-4.75));
#514 = DIRECTION('',(1.,0.,0.));
#515 = DIRECTION('',(0.,-1.,0.));
#516 = ADVANCED_FACE('',(#517),#554,.F.);
#517 = FACE_BOUND('',#518,.T.);
#518 = EDGE_LOOP('',(#519,#527,#528,#529,#538,#547));
#519 = ORIENTED_EDGE('',*,*,#520,.F.);
#520 = EDGE_CURVE('',#92,#521,#523,.T.);
#521 = VERTEX_POINT('',#522);
#522 = CARTESIAN_POINT('',(7.55,-2.,2.54));
#523 = LINE('',#524,#525);
#524 = CARTESIAN_POINT('',(7.55,5.639932965096E-16,2.54));
#525 = VECTOR('',#526,1.);
#526 = DIRECTION('',(-1.110223024625E-16,-1.,2.22044604925E-16));
#527 = ORIENTED_EDGE('',*,*,#91,.T.);
#528 = ORIENTED_EDGE('',*,*,#520,.T.);
#529 = ORIENTED_EDGE('',*,*,#530,.F.);
#530 = EDGE_CURVE('',#531,#521,#533,.T.);
#531 = VERTEX_POINT('',#532);
#532 = CARTESIAN_POINT('',(6.,-2.,3.687824028325));
#533 = CIRCLE('',#534,1.2);
#534 = AXIS2_PLACEMENT_3D('',#535,#536,#537);
#535 = CARTESIAN_POINT('',(6.35,-2.,2.54));
#536 = DIRECTION('',(0.,1.,-2.22044604925E-16));
#537 = DIRECTION('',(1.,0.,0.));
#538 = ORIENTED_EDGE('',*,*,#539,.F.);
#539 = EDGE_CURVE('',#540,#531,#542,.T.);
#540 = VERTEX_POINT('',#541);
#541 = CARTESIAN_POINT('',(6.,-2.,1.392175971675));
#542 = CIRCLE('',#543,1.2);
#543 = AXIS2_PLACEMENT_3D('',#544,#545,#546);
#544 = CARTESIAN_POINT('',(6.35,-2.,2.54));
#545 = DIRECTION('',(0.,1.,-2.22044604925E-16));
#546 = DIRECTION('',(1.,0.,0.));
#547 = ORIENTED_EDGE('',*,*,#548,.F.);
#548 = EDGE_CURVE('',#521,#540,#549,.T.);
#549 = CIRCLE('',#550,1.2);
#550 = AXIS2_PLACEMENT_3D('',#551,#552,#553);
#551 = CARTESIAN_POINT('',(6.35,-2.,2.54));
#552 = DIRECTION('',(0.,1.,-2.22044604925E-16));
#553 = DIRECTION('',(1.,0.,0.));
#554 = CYLINDRICAL_SURFACE('',#555,1.2);
#555 = AXIS2_PLACEMENT_3D('',#556,#557,#558);
#556 = CARTESIAN_POINT('',(6.35,5.639932965096E-16,2.54));
#557 = DIRECTION('',(0.,-1.,2.22044604925E-16));
#558 = DIRECTION('',(1.,0.,0.));
#559 = ADVANCED_FACE('',(#560),#579,.F.);
#560 = FACE_BOUND('',#561,.T.);
#561 = EDGE_LOOP('',(#562,#570,#571,#572));
#562 = ORIENTED_EDGE('',*,*,#563,.F.);
#563 = EDGE_CURVE('',#103,#564,#566,.T.);
#564 = VERTEX_POINT('',#565);
#565 = CARTESIAN_POINT('',(11.45,-2.,4.440892098501E-16));
#566 = LINE('',#567,#568);
#567 = CARTESIAN_POINT('',(11.45,0.,0.));
#568 = VECTOR('',#569,1.);
#569 = DIRECTION('',(-6.231700891857E-17,-1.,2.22044604925E-16));
#570 = ORIENTED_EDGE('',*,*,#102,.T.);
#571 = ORIENTED_EDGE('',*,*,#563,.T.);
#572 = ORIENTED_EDGE('',*,*,#573,.T.);
#573 = EDGE_CURVE('',#564,#564,#574,.T.);
#574 = CIRCLE('',#575,1.45);
#575 = AXIS2_PLACEMENT_3D('',#576,#577,#578);
#576 = CARTESIAN_POINT('',(10.,-2.,4.440892098501E-16));
#577 = DIRECTION('',(0.,-1.,2.22044604925E-16));
#578 = DIRECTION('',(1.,0.,0.));
#579 = CYLINDRICAL_SURFACE('',#580,1.45);
#580 = AXIS2_PLACEMENT_3D('',#581,#582,#583);
#581 = CARTESIAN_POINT('',(10.,0.,0.));
#582 = DIRECTION('',(0.,-1.,2.22044604925E-16));
#583 = DIRECTION('',(1.,0.,0.));
#584 = ADVANCED_FACE('',(#585),#622,.F.);
#585 = FACE_BOUND('',#586,.T.);
#586 = EDGE_LOOP('',(#587,#595,#596,#597,#606,#615));
#587 = ORIENTED_EDGE('',*,*,#588,.F.);
#588 = EDGE_CURVE('',#114,#589,#591,.T.);
#589 = VERTEX_POINT('',#590);
#590 = CARTESIAN_POINT('',(-5.15,-2.,2.54));
#591 = LINE('',#592,#593);
#592 = CARTESIAN_POINT('',(-5.15,5.639932965096E-16,2.54));
#593 = VECTOR('',#594,1.);
#594 = DIRECTION('',(-1.110223024625E-16,-1.,2.22044604925E-16));
#595 = ORIENTED_EDGE('',*,*,#113,.T.);
#596 = ORIENTED_EDGE('',*,*,#588,.T.);
#597 = ORIENTED_EDGE('',*,*,#598,.F.);
#598 = EDGE_CURVE('',#599,#589,#601,.T.);
#599 = VERTEX_POINT('',#600);
#600 = CARTESIAN_POINT('',(-6.,-2.,3.687824028325));
#601 = CIRCLE('',#602,1.2);
#602 = AXIS2_PLACEMENT_3D('',#603,#604,#605);
#603 = CARTESIAN_POINT('',(-6.35,-2.,2.54));
#604 = DIRECTION('',(0.,1.,-2.22044604925E-16));
#605 = DIRECTION('',(1.,0.,0.));
#606 = ORIENTED_EDGE('',*,*,#607,.F.);
#607 = EDGE_CURVE('',#608,#599,#610,.T.);
#608 = VERTEX_POINT('',#609);
#609 = CARTESIAN_POINT('',(-6.,-2.,1.392175971675));
#610 = CIRCLE('',#611,1.2);
#611 = AXIS2_PLACEMENT_3D('',#612,#613,#614);
#612 = CARTESIAN_POINT('',(-6.35,-2.,2.54));
#613 = DIRECTION('',(0.,1.,-2.22044604925E-16));
#614 = DIRECTION('',(1.,0.,0.));
#615 = ORIENTED_EDGE('',*,*,#616,.F.);
#616 = EDGE_CURVE('',#589,#608,#617,.T.);
#617 = CIRCLE('',#618,1.2);
#618 = AXIS2_PLACEMENT_3D('',#619,#620,#621);
#619 = CARTESIAN_POINT('',(-6.35,-2.,2.54));
#620 = DIRECTION('',(0.,1.,-2.22044604925E-16));
#621 = DIRECTION('',(1.,0.,0.));
#622 = CYLINDRICAL_SURFACE('',#623,1.2);
#623 = AXIS2_PLACEMENT_3D('',#624,#625,#626);
#624 = CARTESIAN_POINT('',(-6.35,5.639932965096E-16,2.54));
#625 = DIRECTION('',(0.,-1.,2.22044604925E-16));
#626 = DIRECTION('',(1.,0.,0.));
#627 = ADVANCED_FACE('',(#628),#647,.F.);
#628 = FACE_BOUND('',#629,.T.);
#629 = EDGE_LOOP('',(#630,#638,#639,#640));
#630 = ORIENTED_EDGE('',*,*,#631,.F.);
#631 = EDGE_CURVE('',#125,#632,#634,.T.);
#632 = VERTEX_POINT('',#633);
#633 = CARTESIAN_POINT('',(-8.55,-2.,4.440892098501E-16));
#634 = LINE('',#635,#636);
#635 = CARTESIAN_POINT('',(-8.55,0.,0.));
#636 = VECTOR('',#637,1.);
#637 = DIRECTION('',(-6.231700891857E-17,-1.,2.22044604925E-16));
#638 = ORIENTED_EDGE('',*,*,#124,.T.);
#639 = ORIENTED_EDGE('',*,*,#631,.T.);
#640 = ORIENTED_EDGE('',*,*,#641,.T.);
#641 = EDGE_CURVE('',#632,#632,#642,.T.);
#642 = CIRCLE('',#643,1.45);
#643 = AXIS2_PLACEMENT_3D('',#644,#645,#646);
#644 = CARTESIAN_POINT('',(-10.,-2.,4.440892098501E-16));
#645 = DIRECTION('',(0.,-1.,2.22044604925E-16));
#646 = DIRECTION('',(1.,0.,0.));
#647 = CYLINDRICAL_SURFACE('',#648,1.45);
#648 = AXIS2_PLACEMENT_3D('',#649,#650,#651);
#649 = CARTESIAN_POINT('',(-10.,0.,0.));
#650 = DIRECTION('',(0.,-1.,2.22044604925E-16));
#651 = DIRECTION('',(1.,0.,0.));
#652 = ADVANCED_FACE('',(#653),#690,.F.);
#653 = FACE_BOUND('',#654,.T.);
#654 = EDGE_LOOP('',(#655,#663,#664,#665,#674,#683));
#655 = ORIENTED_EDGE('',*,*,#656,.F.);
#656 = EDGE_CURVE('',#136,#657,#659,.T.);
#657 = VERTEX_POINT('',#658);
#658 = CARTESIAN_POINT('',(7.55,-2.,-2.54));
#659 = LINE('',#660,#661);
#660 = CARTESIAN_POINT('',(7.55,-5.639932965096E-16,-2.54));
#661 = VECTOR('',#662,1.);
#662 = DIRECTION('',(-1.110223024625E-16,-1.,2.22044604925E-16));
#663 = ORIENTED_EDGE('',*,*,#135,.T.);
#664 = ORIENTED_EDGE('',*,*,#656,.T.);
#665 = ORIENTED_EDGE('',*,*,#666,.F.);
#666 = EDGE_CURVE('',#667,#657,#669,.T.);
#667 = VERTEX_POINT('',#668);
#668 = CARTESIAN_POINT('',(6.,-2.,-1.392175971675));
#669 = CIRCLE('',#670,1.2);
#670 = AXIS2_PLACEMENT_3D('',#671,#672,#673);
#671 = CARTESIAN_POINT('',(6.35,-2.,-2.54));
#672 = DIRECTION('',(0.,1.,-2.22044604925E-16));
#673 = DIRECTION('',(1.,0.,0.));
#674 = ORIENTED_EDGE('',*,*,#675,.F.);
#675 = EDGE_CURVE('',#676,#667,#678,.T.);
#676 = VERTEX_POINT('',#677);
#677 = CARTESIAN_POINT('',(6.,-2.,-3.687824028325));
#678 = CIRCLE('',#679,1.2);
#679 = AXIS2_PLACEMENT_3D('',#680,#681,#682);
#680 = CARTESIAN_POINT('',(6.35,-2.,-2.54));
#681 = DIRECTION('',(0.,1.,-2.22044604925E-16));
#682 = DIRECTION('',(1.,0.,0.));
#683 = ORIENTED_EDGE('',*,*,#684,.F.);
#684 = EDGE_CURVE('',#657,#676,#685,.T.);
#685 = CIRCLE('',#686,1.2);
#686 = AXIS2_PLACEMENT_3D('',#687,#688,#689);
#687 = CARTESIAN_POINT('',(6.35,-2.,-2.54));
#688 = DIRECTION('',(0.,1.,-2.22044604925E-16));
#689 = DIRECTION('',(1.,0.,0.));
#690 = CYLINDRICAL_SURFACE('',#691,1.2);
#691 = AXIS2_PLACEMENT_3D('',#692,#693,#694);
#692 = CARTESIAN_POINT('',(6.35,-5.639932965096E-16,-2.54));
#693 = DIRECTION('',(0.,-1.,2.22044604925E-16));
#694 = DIRECTION('',(1.,0.,0.));
#695 = ADVANCED_FACE('',(#696),#732,.F.);
#696 = FACE_BOUND('',#697,.T.);
#697 = EDGE_LOOP('',(#698,#699,#707,#716,#725,#731));
#698 = ORIENTED_EDGE('',*,*,#157,.T.);
#699 = ORIENTED_EDGE('',*,*,#700,.T.);
#700 = EDGE_CURVE('',#158,#701,#703,.T.);
#701 = VERTEX_POINT('',#702);
#702 = CARTESIAN_POINT('',(4.65,-2.,1.683028588575));
#703 = LINE('',#704,#705);
#704 = CARTESIAN_POINT('',(4.65,3.737074180276E-16,1.683028588575));
#705 = VECTOR('',#706,1.);
#706 = DIRECTION('',(0.,-1.,2.22044604925E-16));
#707 = ORIENTED_EDGE('',*,*,#708,.F.);
#708 = EDGE_CURVE('',#709,#701,#711,.T.);
#709 = VERTEX_POINT('',#710);
#710 = CARTESIAN_POINT('',(5.01,-2.,2.54));
#711 = CIRCLE('',#712,1.2);
#712 = AXIS2_PLACEMENT_3D('',#713,#714,#715);
#713 = CARTESIAN_POINT('',(3.81,-2.,2.54));
#714 = DIRECTION('',(0.,1.,-2.22044604925E-16));
#715 = DIRECTION('',(1.,0.,0.));
#716 = ORIENTED_EDGE('',*,*,#717,.F.);
#717 = EDGE_CURVE('',#718,#709,#720,.T.);
#718 = VERTEX_POINT('',#719);
#719 = CARTESIAN_POINT('',(2.61,-2.,2.54));
#720 = CIRCLE('',#721,1.2);
#721 = AXIS2_PLACEMENT_3D('',#722,#723,#724);
#722 = CARTESIAN_POINT('',(3.81,-2.,2.54));
#723 = DIRECTION('',(0.,1.,-2.22044604925E-16));
#724 = DIRECTION('',(1.,0.,0.));
#725 = ORIENTED_EDGE('',*,*,#726,.F.);
#726 = EDGE_CURVE('',#147,#718,#727,.T.);
#727 = LINE('',#728,#729);
#728 = CARTESIAN_POINT('',(2.61,5.639932965096E-16,2.54));
#729 = VECTOR('',#730,1.);
#730 = DIRECTION('',(0.,-1.,2.22044604925E-16));
#731 = ORIENTED_EDGE('',*,*,#146,.T.);
#732 = CYLINDRICAL_SURFACE('',#733,1.2);
#733 = AXIS2_PLACEMENT_3D('',#734,#735,#736);
#734 = CARTESIAN_POINT('',(3.81,5.639932965096E-16,2.54));
#735 = DIRECTION('',(0.,-1.,2.22044604925E-16));
#736 = DIRECTION('',(1.,0.,0.));
#737 = ADVANCED_FACE('',(#738),#772,.F.);
#738 = FACE_BOUND('',#739,.F.);
#739 = EDGE_LOOP('',(#740,#750,#758,#764,#765,#766));
#740 = ORIENTED_EDGE('',*,*,#741,.T.);
#741 = EDGE_CURVE('',#742,#744,#746,.T.);
#742 = VERTEX_POINT('',#743);
#743 = CARTESIAN_POINT('',(2.47,-2.,2.54));
#744 = VERTEX_POINT('',#745);
#745 = CARTESIAN_POINT('',(1.27,-3.2,2.54));
#746 = LINE('',#747,#748);
#747 = CARTESIAN_POINT('',(2.47,-2.,2.54));
#748 = VECTOR('',#749,1.);
#749 = DIRECTION('',(-0.707106781187,-0.707106781187,1.570092458684E-16)
  );
#750 = ORIENTED_EDGE('',*,*,#751,.T.);
#751 = EDGE_CURVE('',#744,#752,#754,.T.);
#752 = VERTEX_POINT('',#753);
#753 = CARTESIAN_POINT('',(3.81,-3.2,2.54));
#754 = LINE('',#755,#756);
#755 = CARTESIAN_POINT('',(-4.65,-3.2,2.54));
#756 = VECTOR('',#757,1.);
#757 = DIRECTION('',(1.,0.,0.));
#758 = ORIENTED_EDGE('',*,*,#759,.T.);
#759 = EDGE_CURVE('',#752,#718,#760,.T.);
#760 = LINE('',#761,#762);
#761 = CARTESIAN_POINT('',(3.81,-3.2,2.54));
#762 = VECTOR('',#763,1.);
#763 = DIRECTION('',(-0.707106781187,0.707106781187,-1.570092458684E-16)
  );
#764 = ORIENTED_EDGE('',*,*,#726,.F.);
#765 = ORIENTED_EDGE('',*,*,#233,.F.);
#766 = ORIENTED_EDGE('',*,*,#767,.T.);
#767 = EDGE_CURVE('',#225,#742,#768,.T.);
#768 = LINE('',#769,#770);
#769 = CARTESIAN_POINT('',(2.47,5.639932965096E-16,2.54));
#770 = VECTOR('',#771,1.);
#771 = DIRECTION('',(-1.110223024625E-16,-1.,2.22044604925E-16));
#772 = PLANE('',#773);
#773 = AXIS2_PLACEMENT_3D('',#774,#775,#776);
#774 = CARTESIAN_POINT('',(-4.65,5.639932965096E-16,2.54));
#775 = DIRECTION('',(0.,2.22044604925E-16,1.));
#776 = DIRECTION('',(1.,0.,0.));
#777 = ADVANCED_FACE('',(#778),#797,.F.);
#778 = FACE_BOUND('',#779,.T.);
#779 = EDGE_LOOP('',(#780,#781,#782,#791));
#780 = ORIENTED_EDGE('',*,*,#224,.T.);
#781 = ORIENTED_EDGE('',*,*,#767,.T.);
#782 = ORIENTED_EDGE('',*,*,#783,.F.);
#783 = EDGE_CURVE('',#784,#742,#786,.T.);
#784 = VERTEX_POINT('',#785);
#785 = CARTESIAN_POINT('',(7.E-02,-2.,2.54));
#786 = CIRCLE('',#787,1.2);
#787 = AXIS2_PLACEMENT_3D('',#788,#789,#790);
#788 = CARTESIAN_POINT('',(1.27,-2.,2.54));
#789 = DIRECTION('',(0.,1.,-2.22044604925E-16));
#790 = DIRECTION('',(1.,0.,0.));
#791 = ORIENTED_EDGE('',*,*,#792,.F.);
#792 = EDGE_CURVE('',#217,#784,#793,.T.);
#793 = LINE('',#794,#795);
#794 = CARTESIAN_POINT('',(7.E-02,5.639932965096E-16,2.54));
#795 = VECTOR('',#796,1.);
#796 = DIRECTION('',(0.,-1.,2.22044604925E-16));
#797 = CYLINDRICAL_SURFACE('',#798,1.2);
#798 = AXIS2_PLACEMENT_3D('',#799,#800,#801);
#799 = CARTESIAN_POINT('',(1.27,5.639932965096E-16,2.54));
#800 = DIRECTION('',(0.,-1.,2.22044604925E-16));
#801 = DIRECTION('',(1.,0.,0.));
#802 = ADVANCED_FACE('',(#803),#835,.F.);
#803 = FACE_BOUND('',#804,.F.);
#804 = EDGE_LOOP('',(#805,#815,#821,#827,#828,#829));
#805 = ORIENTED_EDGE('',*,*,#806,.T.);
#806 = EDGE_CURVE('',#807,#809,#811,.T.);
#807 = VERTEX_POINT('',#808);
#808 = CARTESIAN_POINT('',(-7.E-02,-2.,2.54));
#809 = VERTEX_POINT('',#810);
#810 = CARTESIAN_POINT('',(-1.27,-3.2,2.54));
#811 = LINE('',#812,#813);
#812 = CARTESIAN_POINT('',(-7.E-02,-2.,2.54));
#813 = VECTOR('',#814,1.);
#814 = DIRECTION('',(-0.707106781187,-0.707106781187,1.570092458684E-16)
  );
#815 = ORIENTED_EDGE('',*,*,#816,.T.);
#816 = EDGE_CURVE('',#809,#744,#817,.T.);
#817 = LINE('',#818,#819);
#818 = CARTESIAN_POINT('',(-4.65,-3.2,2.54));
#819 = VECTOR('',#820,1.);
#820 = DIRECTION('',(1.,0.,0.));
#821 = ORIENTED_EDGE('',*,*,#822,.T.);
#822 = EDGE_CURVE('',#744,#784,#823,.T.);
#823 = LINE('',#824,#825);
#824 = CARTESIAN_POINT('',(1.27,-3.2,2.54));
#825 = VECTOR('',#826,1.);
#826 = DIRECTION('',(-0.707106781187,0.707106781187,-1.570092458684E-16)
  );
#827 = ORIENTED_EDGE('',*,*,#792,.F.);
#828 = ORIENTED_EDGE('',*,*,#216,.F.);
#829 = ORIENTED_EDGE('',*,*,#830,.T.);
#830 = EDGE_CURVE('',#208,#807,#831,.T.);
#831 = LINE('',#832,#833);
#832 = CARTESIAN_POINT('',(-7.E-02,5.639932965096E-16,2.54));
#833 = VECTOR('',#834,1.);
#834 = DIRECTION('',(-1.110223024625E-16,-1.,2.22044604925E-16));
#835 = PLANE('',#836);
#836 = AXIS2_PLACEMENT_3D('',#837,#838,#839);
#837 = CARTESIAN_POINT('',(-4.65,5.639932965096E-16,2.54));
#838 = DIRECTION('',(0.,2.22044604925E-16,1.));
#839 = DIRECTION('',(1.,0.,0.));
#840 = ADVANCED_FACE('',(#841),#860,.F.);
#841 = FACE_BOUND('',#842,.T.);
#842 = EDGE_LOOP('',(#843,#844,#845,#854));
#843 = ORIENTED_EDGE('',*,*,#207,.T.);
#844 = ORIENTED_EDGE('',*,*,#830,.T.);
#845 = ORIENTED_EDGE('',*,*,#846,.F.);
#846 = EDGE_CURVE('',#847,#807,#849,.T.);
#847 = VERTEX_POINT('',#848);
#848 = CARTESIAN_POINT('',(-2.47,-2.,2.54));
#849 = CIRCLE('',#850,1.2);
#850 = AXIS2_PLACEMENT_3D('',#851,#852,#853);
#851 = CARTESIAN_POINT('',(-1.27,-2.,2.54));
#852 = DIRECTION('',(0.,1.,-2.22044604925E-16));
#853 = DIRECTION('',(1.,0.,0.));
#854 = ORIENTED_EDGE('',*,*,#855,.F.);
#855 = EDGE_CURVE('',#200,#847,#856,.T.);
#856 = LINE('',#857,#858);
#857 = CARTESIAN_POINT('',(-2.47,5.639932965096E-16,2.54));
#858 = VECTOR('',#859,1.);
#859 = DIRECTION('',(0.,-1.,2.22044604925E-16));
#860 = CYLINDRICAL_SURFACE('',#861,1.2);
#861 = AXIS2_PLACEMENT_3D('',#862,#863,#864);
#862 = CARTESIAN_POINT('',(-1.27,5.639932965096E-16,2.54));
#863 = DIRECTION('',(0.,-1.,2.22044604925E-16));
#864 = DIRECTION('',(1.,0.,0.));
#865 = ADVANCED_FACE('',(#866),#898,.F.);
#866 = FACE_BOUND('',#867,.F.);
#867 = EDGE_LOOP('',(#868,#869,#877,#885,#891,#897));
#868 = ORIENTED_EDGE('',*,*,#199,.F.);
#869 = ORIENTED_EDGE('',*,*,#870,.T.);
#870 = EDGE_CURVE('',#191,#871,#873,.T.);
#871 = VERTEX_POINT('',#872);
#872 = CARTESIAN_POINT('',(-2.61,-2.,2.54));
#873 = LINE('',#874,#875);
#874 = CARTESIAN_POINT('',(-2.61,5.639932965096E-16,2.54));
#875 = VECTOR('',#876,1.);
#876 = DIRECTION('',(-1.110223024625E-16,-1.,2.22044604925E-16));
#877 = ORIENTED_EDGE('',*,*,#878,.T.);
#878 = EDGE_CURVE('',#871,#879,#881,.T.);
#879 = VERTEX_POINT('',#880);
#880 = CARTESIAN_POINT('',(-3.81,-3.2,2.54));
#881 = LINE('',#882,#883);
#882 = CARTESIAN_POINT('',(-2.61,-2.,2.54));
#883 = VECTOR('',#884,1.);
#884 = DIRECTION('',(-0.707106781187,-0.707106781187,1.570092458684E-16)
  );
#885 = ORIENTED_EDGE('',*,*,#886,.T.);
#886 = EDGE_CURVE('',#879,#809,#887,.T.);
#887 = LINE('',#888,#889);
#888 = CARTESIAN_POINT('',(-4.65,-3.2,2.54));
#889 = VECTOR('',#890,1.);
#890 = DIRECTION('',(1.,0.,0.));
#891 = ORIENTED_EDGE('',*,*,#892,.T.);
#892 = EDGE_CURVE('',#809,#847,#893,.T.);
#893 = LINE('',#894,#895);
#894 = CARTESIAN_POINT('',(-1.27,-3.2,2.54));
#895 = VECTOR('',#896,1.);
#896 = DIRECTION('',(-0.707106781187,0.707106781187,-1.570092458684E-16)
  );
#897 = ORIENTED_EDGE('',*,*,#855,.F.);
#898 = PLANE('',#899);
#899 = AXIS2_PLACEMENT_3D('',#900,#901,#902);
#900 = CARTESIAN_POINT('',(-4.65,5.639932965096E-16,2.54));
#901 = DIRECTION('',(0.,2.22044604925E-16,1.));
#902 = DIRECTION('',(1.,0.,0.));
#903 = ADVANCED_FACE('',(#904),#923,.F.);
#904 = FACE_BOUND('',#905,.T.);
#905 = EDGE_LOOP('',(#906,#907,#908,#917));
#906 = ORIENTED_EDGE('',*,*,#190,.T.);
#907 = ORIENTED_EDGE('',*,*,#870,.T.);
#908 = ORIENTED_EDGE('',*,*,#909,.F.);
#909 = EDGE_CURVE('',#910,#871,#912,.T.);
#910 = VERTEX_POINT('',#911);
#911 = CARTESIAN_POINT('',(-4.65,-2.,1.683028588575));
#912 = CIRCLE('',#913,1.2);
#913 = AXIS2_PLACEMENT_3D('',#914,#915,#916);
#914 = CARTESIAN_POINT('',(-3.81,-2.,2.54));
#915 = DIRECTION('',(0.,1.,-2.22044604925E-16));
#916 = DIRECTION('',(1.,0.,0.));
#917 = ORIENTED_EDGE('',*,*,#918,.F.);
#918 = EDGE_CURVE('',#183,#910,#919,.T.);
#919 = LINE('',#920,#921);
#920 = CARTESIAN_POINT('',(-4.65,3.737074180276E-16,1.683028588575));
#921 = VECTOR('',#922,1.);
#922 = DIRECTION('',(0.,-1.,2.22044604925E-16));
#923 = CYLINDRICAL_SURFACE('',#924,1.2);
#924 = AXIS2_PLACEMENT_3D('',#925,#926,#927);
#925 = CARTESIAN_POINT('',(-3.81,5.639932965096E-16,2.54));
#926 = DIRECTION('',(0.,-1.,2.22044604925E-16));
#927 = DIRECTION('',(1.,0.,0.));
#928 = ADVANCED_FACE('',(#929),#988,.T.);
#929 = FACE_BOUND('',#930,.T.);
#930 = EDGE_LOOP('',(#931,#941,#949,#957,#965,#971,#972,#973,#982));
#931 = ORIENTED_EDGE('',*,*,#932,.F.);
#932 = EDGE_CURVE('',#933,#935,#937,.T.);
#933 = VERTEX_POINT('',#934);
#934 = CARTESIAN_POINT('',(-4.65,-3.2,2.539));
#935 = VERTEX_POINT('',#936);
#936 = CARTESIAN_POINT('',(-4.65,-3.2,2.54));
#937 = LINE('',#938,#939);
#938 = CARTESIAN_POINT('',(-4.65,-3.2,1.28));
#939 = VECTOR('',#940,1.);
#940 = DIRECTION('',(0.,2.22044604925E-16,1.));
#941 = ORIENTED_EDGE('',*,*,#942,.T.);
#942 = EDGE_CURVE('',#933,#943,#945,.T.);
#943 = VERTEX_POINT('',#944);
#944 = CARTESIAN_POINT('',(-4.65,-4.459,1.28));
#945 = LINE('',#946,#947);
#946 = CARTESIAN_POINT('',(-4.65,-4.65842572562,1.08057427438));
#947 = VECTOR('',#948,1.);
#948 = DIRECTION('',(0.,-0.707106781187,-0.707106781187));
#949 = ORIENTED_EDGE('',*,*,#950,.T.);
#950 = EDGE_CURVE('',#943,#951,#953,.T.);
#951 = VERTEX_POINT('',#952);
#952 = CARTESIAN_POINT('',(-4.65,-8.849248561441,1.28));
#953 = LINE('',#954,#955);
#954 = CARTESIAN_POINT('',(-4.65,2.84217094304E-16,1.28));
#955 = VECTOR('',#956,1.);
#956 = DIRECTION('',(0.,-1.,2.22044604925E-16));
#957 = ORIENTED_EDGE('',*,*,#958,.T.);
#958 = EDGE_CURVE('',#951,#959,#961,.T.);
#959 = VERTEX_POINT('',#960);
#960 = CARTESIAN_POINT('',(-4.65,-8.849248561441,-3.82));
#961 = LINE('',#962,#963);
#962 = CARTESIAN_POINT('',(-4.65,-8.849248561441,-4.75));
#963 = VECTOR('',#964,1.);
#964 = DIRECTION('',(-0.,-0.,-1.));
#965 = ORIENTED_EDGE('',*,*,#966,.F.);
#966 = EDGE_CURVE('',#175,#959,#967,.T.);
#967 = LINE('',#968,#969);
#968 = CARTESIAN_POINT('',(-4.65,-8.482103908136E-16,-3.82));
#969 = VECTOR('',#970,1.);
#970 = DIRECTION('',(0.,-1.,2.22044604925E-16));
#971 = ORIENTED_EDGE('',*,*,#182,.T.);
#972 = ORIENTED_EDGE('',*,*,#918,.T.);
#973 = ORIENTED_EDGE('',*,*,#974,.F.);
#974 = EDGE_CURVE('',#975,#910,#977,.T.);
#975 = VERTEX_POINT('',#976);
#976 = CARTESIAN_POINT('',(-4.65,-2.36,2.54));
#977 = HYPERBOLA('',#978,0.84,0.84);
#978 = AXIS2_PLACEMENT_3D('',#979,#980,#981);
#979 = CARTESIAN_POINT('',(-4.65,-3.2,2.54));
#980 = DIRECTION('',(-1.,0.,0.));
#981 = DIRECTION('',(0.,1.,-2.22044604925E-16));
#982 = ORIENTED_EDGE('',*,*,#983,.T.);
#983 = EDGE_CURVE('',#975,#935,#984,.T.);
#984 = LINE('',#985,#986);
#985 = CARTESIAN_POINT('',(-4.65,5.639932965096E-16,2.54));
#986 = VECTOR('',#987,1.);
#987 = DIRECTION('',(0.,-1.,2.22044604925E-16));
#988 = PLANE('',#989);
#989 = AXIS2_PLACEMENT_3D('',#990,#991,#992);
#990 = CARTESIAN_POINT('',(-4.65,-4.272106708244,-0.963596194237));
#991 = DIRECTION('',(1.,0.,0.));
#992 = DIRECTION('',(0.,0.,1.));
#993 = ADVANCED_FACE('',(#994),#1013,.F.);
#994 = FACE_BOUND('',#995,.F.);
#995 = EDGE_LOOP('',(#996,#997,#1005,#1012));
#996 = ORIENTED_EDGE('',*,*,#174,.F.);
#997 = ORIENTED_EDGE('',*,*,#998,.T.);
#998 = EDGE_CURVE('',#167,#999,#1001,.T.);
#999 = VERTEX_POINT('',#1000);
#1000 = CARTESIAN_POINT('',(4.65,-8.849248561441,-3.82));
#1001 = LINE('',#1002,#1003);
#1002 = CARTESIAN_POINT('',(4.65,-8.482103908136E-16,-3.82));
#1003 = VECTOR('',#1004,1.);
#1004 = DIRECTION('',(0.,-1.,2.22044604925E-16));
#1005 = ORIENTED_EDGE('',*,*,#1006,.F.);
#1006 = EDGE_CURVE('',#959,#999,#1007,.T.);
#1007 = CIRCLE('',#1008,43.5);
#1008 = AXIS2_PLACEMENT_3D('',#1009,#1010,#1011);
#1009 = CARTESIAN_POINT('',(0.,-52.1,-3.82));
#1010 = DIRECTION('',(0.,0.,-1.));
#1011 = DIRECTION('',(1.,0.,0.));
#1012 = ORIENTED_EDGE('',*,*,#966,.F.);
#1013 = PLANE('',#1014);
#1014 = AXIS2_PLACEMENT_3D('',#1015,#1016,#1017);
#1015 = CARTESIAN_POINT('',(4.65,-8.482103908136E-16,-3.82));
#1016 = DIRECTION('',(-0.,-2.22044604925E-16,-1.));
#1017 = DIRECTION('',(-1.,0.,0.));
#1018 = ADVANCED_FACE('',(#1019),#1071,.T.);
#1019 = FACE_BOUND('',#1020,.T.);
#1020 = EDGE_LOOP('',(#1021,#1031,#1039,#1047,#1055,#1062,#1063,#1064,
    #1065));
#1021 = ORIENTED_EDGE('',*,*,#1022,.F.);
#1022 = EDGE_CURVE('',#1023,#1025,#1027,.T.);
#1023 = VERTEX_POINT('',#1024);
#1024 = CARTESIAN_POINT('',(4.65,-4.459,1.28));
#1025 = VERTEX_POINT('',#1026);
#1026 = CARTESIAN_POINT('',(4.65,-8.849248561441,1.28));
#1027 = LINE('',#1028,#1029);
#1028 = CARTESIAN_POINT('',(4.65,2.84217094304E-16,1.28));
#1029 = VECTOR('',#1030,1.);
#1030 = DIRECTION('',(0.,-1.,2.22044604925E-16));
#1031 = ORIENTED_EDGE('',*,*,#1032,.F.);
#1032 = EDGE_CURVE('',#1033,#1023,#1035,.T.);
#1033 = VERTEX_POINT('',#1034);
#1034 = CARTESIAN_POINT('',(4.65,-3.2,2.539));
#1035 = LINE('',#1036,#1037);
#1036 = CARTESIAN_POINT('',(4.65,-4.65842572562,1.08057427438));
#1037 = VECTOR('',#1038,1.);
#1038 = DIRECTION('',(0.,-0.707106781187,-0.707106781187));
#1039 = ORIENTED_EDGE('',*,*,#1040,.F.);
#1040 = EDGE_CURVE('',#1041,#1033,#1043,.T.);
#1041 = VERTEX_POINT('',#1042);
#1042 = CARTESIAN_POINT('',(4.65,-3.2,2.54));
#1043 = LINE('',#1044,#1045);
#1044 = CARTESIAN_POINT('',(4.65,-3.2,2.54));
#1045 = VECTOR('',#1046,1.);
#1046 = DIRECTION('',(0.,-2.22044604925E-16,-1.));
#1047 = ORIENTED_EDGE('',*,*,#1048,.F.);
#1048 = EDGE_CURVE('',#1049,#1041,#1051,.T.);
#1049 = VERTEX_POINT('',#1050);
#1050 = CARTESIAN_POINT('',(4.65,-2.36,2.54));
#1051 = LINE('',#1052,#1053);
#1052 = CARTESIAN_POINT('',(4.65,5.639932965096E-16,2.54));
#1053 = VECTOR('',#1054,1.);
#1054 = DIRECTION('',(0.,-1.,2.22044604925E-16));
#1055 = ORIENTED_EDGE('',*,*,#1056,.F.);
#1056 = EDGE_CURVE('',#701,#1049,#1057,.T.);
#1057 = HYPERBOLA('',#1058,0.84,0.84);
#1058 = AXIS2_PLACEMENT_3D('',#1059,#1060,#1061);
#1059 = CARTESIAN_POINT('',(4.65,-3.2,2.54));
#1060 = DIRECTION('',(1.,-0.,0.));
#1061 = DIRECTION('',(0.,1.,-2.22044604925E-16));
#1062 = ORIENTED_EDGE('',*,*,#700,.F.);
#1063 = ORIENTED_EDGE('',*,*,#166,.T.);
#1064 = ORIENTED_EDGE('',*,*,#998,.T.);
#1065 = ORIENTED_EDGE('',*,*,#1066,.F.);
#1066 = EDGE_CURVE('',#1025,#999,#1067,.T.);
#1067 = LINE('',#1068,#1069);
#1068 = CARTESIAN_POINT('',(4.65,-8.849248561441,-4.75));
#1069 = VECTOR('',#1070,1.);
#1070 = DIRECTION('',(-0.,-0.,-1.));
#1071 = PLANE('',#1072);
#1072 = AXIS2_PLACEMENT_3D('',#1073,#1074,#1075);
#1073 = CARTESIAN_POINT('',(4.65,-4.272106708244,-0.963596194237));
#1074 = DIRECTION('',(-1.,-0.,-0.));
#1075 = DIRECTION('',(0.,0.,-1.));
#1076 = ADVANCED_FACE('',(#1077),#1114,.F.);
#1077 = FACE_BOUND('',#1078,.T.);
#1078 = EDGE_LOOP('',(#1079,#1087,#1088,#1089,#1098,#1107));
#1079 = ORIENTED_EDGE('',*,*,#1080,.F.);
#1080 = EDGE_CURVE('',#242,#1081,#1083,.T.);
#1081 = VERTEX_POINT('',#1082);
#1082 = CARTESIAN_POINT('',(-5.15,-2.,-2.54));
#1083 = LINE('',#1084,#1085);
#1084 = CARTESIAN_POINT('',(-5.15,-5.639932965096E-16,-2.54));
#1085 = VECTOR('',#1086,1.);
#1086 = DIRECTION('',(-1.110223024625E-16,-1.,2.22044604925E-16));
#1087 = ORIENTED_EDGE('',*,*,#241,.T.);
#1088 = ORIENTED_EDGE('',*,*,#1080,.T.);
#1089 = ORIENTED_EDGE('',*,*,#1090,.F.);
#1090 = EDGE_CURVE('',#1091,#1081,#1093,.T.);
#1091 = VERTEX_POINT('',#1092);
#1092 = CARTESIAN_POINT('',(-6.,-2.,-1.392175971675));
#1093 = CIRCLE('',#1094,1.2);
#1094 = AXIS2_PLACEMENT_3D('',#1095,#1096,#1097);
#1095 = CARTESIAN_POINT('',(-6.35,-2.,-2.54));
#1096 = DIRECTION('',(0.,1.,-2.22044604925E-16));
#1097 = DIRECTION('',(1.,0.,0.));
#1098 = ORIENTED_EDGE('',*,*,#1099,.F.);
#1099 = EDGE_CURVE('',#1100,#1091,#1102,.T.);
#1100 = VERTEX_POINT('',#1101);
#1101 = CARTESIAN_POINT('',(-6.,-2.,-3.687824028325));
#1102 = CIRCLE('',#1103,1.2);
#1103 = AXIS2_PLACEMENT_3D('',#1104,#1105,#1106);
#1104 = CARTESIAN_POINT('',(-6.35,-2.,-2.54));
#1105 = DIRECTION('',(0.,1.,-2.22044604925E-16));
#1106 = DIRECTION('',(1.,0.,0.));
#1107 = ORIENTED_EDGE('',*,*,#1108,.F.);
#1108 = EDGE_CURVE('',#1081,#1100,#1109,.T.);
#1109 = CIRCLE('',#1110,1.2);
#1110 = AXIS2_PLACEMENT_3D('',#1111,#1112,#1113);
#1111 = CARTESIAN_POINT('',(-6.35,-2.,-2.54));
#1112 = DIRECTION('',(0.,1.,-2.22044604925E-16));
#1113 = DIRECTION('',(1.,0.,0.));
#1114 = CYLINDRICAL_SURFACE('',#1115,1.2);
#1115 = AXIS2_PLACEMENT_3D('',#1116,#1117,#1118);
#1116 = CARTESIAN_POINT('',(-6.35,-5.639932965096E-16,-2.54));
#1117 = DIRECTION('',(0.,-1.,2.22044604925E-16));
#1118 = DIRECTION('',(1.,0.,0.));
#1119 = ADVANCED_FACE('',(#1120,#1149),#1152,.F.);
#1120 = FACE_BOUND('',#1121,.F.);
#1121 = EDGE_LOOP('',(#1122,#1123,#1129,#1130,#1131,#1137,#1138,#1139,
    #1145,#1146,#1147,#1148));
#1122 = ORIENTED_EDGE('',*,*,#339,.F.);
#1123 = ORIENTED_EDGE('',*,*,#1124,.T.);
#1124 = EDGE_CURVE('',#340,#676,#1125,.T.);
#1125 = LINE('',#1126,#1127);
#1126 = CARTESIAN_POINT('',(6.,-2.,-4.75));
#1127 = VECTOR('',#1128,1.);
#1128 = DIRECTION('',(0.,0.,1.));
#1129 = ORIENTED_EDGE('',*,*,#684,.F.);
#1130 = ORIENTED_EDGE('',*,*,#666,.F.);
#1131 = ORIENTED_EDGE('',*,*,#1132,.T.);
#1132 = EDGE_CURVE('',#667,#540,#1133,.T.);
#1133 = LINE('',#1134,#1135);
#1134 = CARTESIAN_POINT('',(6.,-2.,-4.75));
#1135 = VECTOR('',#1136,1.);
#1136 = DIRECTION('',(0.,0.,1.));
#1137 = ORIENTED_EDGE('',*,*,#548,.F.);
#1138 = ORIENTED_EDGE('',*,*,#530,.F.);
#1139 = ORIENTED_EDGE('',*,*,#1140,.T.);
#1140 = EDGE_CURVE('',#531,#397,#1141,.T.);
#1141 = LINE('',#1142,#1143);
#1142 = CARTESIAN_POINT('',(6.,-2.,-4.75));
#1143 = VECTOR('',#1144,1.);
#1144 = DIRECTION('',(0.,0.,1.));
#1145 = ORIENTED_EDGE('',*,*,#396,.T.);
#1146 = ORIENTED_EDGE('',*,*,#314,.T.);
#1147 = ORIENTED_EDGE('',*,*,#258,.F.);
#1148 = ORIENTED_EDGE('',*,*,#289,.F.);
#1149 = FACE_BOUND('',#1150,.F.);
#1150 = EDGE_LOOP('',(#1151));
#1151 = ORIENTED_EDGE('',*,*,#573,.T.);
#1152 = PLANE('',#1153);
#1153 = AXIS2_PLACEMENT_3D('',#1154,#1155,#1156);
#1154 = CARTESIAN_POINT('',(6.,-2.,-4.75));
#1155 = DIRECTION('',(0.,1.,0.));
#1156 = DIRECTION('',(1.,0.,0.));
#1157 = ADVANCED_FACE('',(#1158),#1185,.F.);
#1158 = FACE_BOUND('',#1159,.F.);
#1159 = EDGE_LOOP('',(#1160,#1161,#1167,#1168,#1169,#1176,#1177,#1184));
#1160 = ORIENTED_EDGE('',*,*,#382,.F.);
#1161 = ORIENTED_EDGE('',*,*,#1162,.T.);
#1162 = EDGE_CURVE('',#374,#431,#1163,.T.);
#1163 = LINE('',#1164,#1165);
#1164 = CARTESIAN_POINT('',(6.,-9.015780150965,-4.75));
#1165 = VECTOR('',#1166,1.);
#1166 = DIRECTION('',(0.,0.,1.));
#1167 = ORIENTED_EDGE('',*,*,#439,.T.);
#1168 = ORIENTED_EDGE('',*,*,#1140,.F.);
#1169 = ORIENTED_EDGE('',*,*,#1170,.T.);
#1170 = EDGE_CURVE('',#531,#540,#1171,.T.);
#1171 = HYPERBOLA('',#1172,0.35,0.35);
#1172 = AXIS2_PLACEMENT_3D('',#1173,#1174,#1175);
#1173 = CARTESIAN_POINT('',(6.,-3.2,2.54));
#1174 = DIRECTION('',(-1.,0.,0.));
#1175 = DIRECTION('',(0.,1.,-2.22044604925E-16));
#1176 = ORIENTED_EDGE('',*,*,#1132,.F.);
#1177 = ORIENTED_EDGE('',*,*,#1178,.T.);
#1178 = EDGE_CURVE('',#667,#676,#1179,.T.);
#1179 = HYPERBOLA('',#1180,0.35,0.35);
#1180 = AXIS2_PLACEMENT_3D('',#1181,#1182,#1183);
#1181 = CARTESIAN_POINT('',(6.,-3.2,-2.54));
#1182 = DIRECTION('',(-1.,0.,0.));
#1183 = DIRECTION('',(0.,1.,-2.22044604925E-16));
#1184 = ORIENTED_EDGE('',*,*,#1124,.F.);
#1185 = PLANE('',#1186);
#1186 = AXIS2_PLACEMENT_3D('',#1187,#1188,#1189);
#1187 = CARTESIAN_POINT('',(6.,-9.015780150965,-4.75));
#1188 = DIRECTION('',(-1.,0.,0.));
#1189 = DIRECTION('',(0.,1.,0.));
#1190 = ADVANCED_FACE('',(#1191,#1202),#1214,.F.);
#1191 = FACE_BOUND('',#1192,.T.);
#1192 = EDGE_LOOP('',(#1193,#1194,#1195,#1201));
#1193 = ORIENTED_EDGE('',*,*,#1162,.T.);
#1194 = ORIENTED_EDGE('',*,*,#430,.T.);
#1195 = ORIENTED_EDGE('',*,*,#1196,.F.);
#1196 = EDGE_CURVE('',#366,#423,#1197,.T.);
#1197 = LINE('',#1198,#1199);
#1198 = CARTESIAN_POINT('',(-6.,-9.015780150965,-4.75));
#1199 = VECTOR('',#1200,1.);
#1200 = DIRECTION('',(0.,0.,1.));
#1201 = ORIENTED_EDGE('',*,*,#373,.F.);
#1202 = FACE_BOUND('',#1203,.T.);
#1203 = EDGE_LOOP('',(#1204,#1205,#1206,#1213));
#1204 = ORIENTED_EDGE('',*,*,#1006,.F.);
#1205 = ORIENTED_EDGE('',*,*,#958,.F.);
#1206 = ORIENTED_EDGE('',*,*,#1207,.T.);
#1207 = EDGE_CURVE('',#951,#1025,#1208,.T.);
#1208 = CIRCLE('',#1209,43.5);
#1209 = AXIS2_PLACEMENT_3D('',#1210,#1211,#1212);
#1210 = CARTESIAN_POINT('',(0.,-52.1,1.28));
#1211 = DIRECTION('',(0.,0.,-1.));
#1212 = DIRECTION('',(1.,0.,0.));
#1213 = ORIENTED_EDGE('',*,*,#1066,.T.);
#1214 = CYLINDRICAL_SURFACE('',#1215,43.5);
#1215 = AXIS2_PLACEMENT_3D('',#1216,#1217,#1218);
#1216 = CARTESIAN_POINT('',(0.,-52.1,-4.75));
#1217 = DIRECTION('',(-0.,-0.,-1.));
#1218 = DIRECTION('',(1.,0.,0.));
#1219 = ADVANCED_FACE('',(#1220),#1275,.T.);
#1220 = FACE_BOUND('',#1221,.T.);
#1221 = EDGE_LOOP('',(#1222,#1223,#1224,#1225,#1231,#1240,#1247,#1253,
    #1262,#1269));
#1222 = ORIENTED_EDGE('',*,*,#365,.F.);
#1223 = ORIENTED_EDGE('',*,*,#1196,.T.);
#1224 = ORIENTED_EDGE('',*,*,#422,.T.);
#1225 = ORIENTED_EDGE('',*,*,#1226,.F.);
#1226 = EDGE_CURVE('',#599,#415,#1227,.T.);
#1227 = LINE('',#1228,#1229);
#1228 = CARTESIAN_POINT('',(-6.,-2.,-4.75));
#1229 = VECTOR('',#1230,1.);
#1230 = DIRECTION('',(0.,0.,1.));
#1231 = ORIENTED_EDGE('',*,*,#1232,.T.);
#1232 = EDGE_CURVE('',#599,#1233,#1235,.T.);
#1233 = VERTEX_POINT('',#1234);
#1234 = CARTESIAN_POINT('',(-6.,-2.85,2.54));
#1235 = HYPERBOLA('',#1236,0.35,0.35);
#1236 = AXIS2_PLACEMENT_3D('',#1237,#1238,#1239);
#1237 = CARTESIAN_POINT('',(-6.,-3.2,2.54));
#1238 = DIRECTION('',(-1.,0.,0.));
#1239 = DIRECTION('',(0.,1.,-2.22044604925E-16));
#1240 = ORIENTED_EDGE('',*,*,#1241,.T.);
#1241 = EDGE_CURVE('',#1233,#608,#1242,.T.);
#1242 = HYPERBOLA('',#1243,0.35,0.35);
#1243 = AXIS2_PLACEMENT_3D('',#1244,#1245,#1246);
#1244 = CARTESIAN_POINT('',(-6.,-3.2,2.54));
#1245 = DIRECTION('',(-1.,0.,0.));
#1246 = DIRECTION('',(0.,1.,-2.22044604925E-16));
#1247 = ORIENTED_EDGE('',*,*,#1248,.F.);
#1248 = EDGE_CURVE('',#1091,#608,#1249,.T.);
#1249 = LINE('',#1250,#1251);
#1250 = CARTESIAN_POINT('',(-6.,-2.,-4.75));
#1251 = VECTOR('',#1252,1.);
#1252 = DIRECTION('',(0.,0.,1.));
#1253 = ORIENTED_EDGE('',*,*,#1254,.T.);
#1254 = EDGE_CURVE('',#1091,#1255,#1257,.T.);
#1255 = VERTEX_POINT('',#1256);
#1256 = CARTESIAN_POINT('',(-6.,-2.85,-2.54));
#1257 = HYPERBOLA('',#1258,0.35,0.35);
#1258 = AXIS2_PLACEMENT_3D('',#1259,#1260,#1261);
#1259 = CARTESIAN_POINT('',(-6.,-3.2,-2.54));
#1260 = DIRECTION('',(-1.,0.,0.));
#1261 = DIRECTION('',(0.,1.,-2.22044604925E-16));
#1262 = ORIENTED_EDGE('',*,*,#1263,.T.);
#1263 = EDGE_CURVE('',#1255,#1100,#1264,.T.);
#1264 = HYPERBOLA('',#1265,0.35,0.35);
#1265 = AXIS2_PLACEMENT_3D('',#1266,#1267,#1268);
#1266 = CARTESIAN_POINT('',(-6.,-3.2,-2.54));
#1267 = DIRECTION('',(-1.,0.,0.));
#1268 = DIRECTION('',(0.,1.,-2.22044604925E-16));
#1269 = ORIENTED_EDGE('',*,*,#1270,.F.);
#1270 = EDGE_CURVE('',#358,#1100,#1271,.T.);
#1271 = LINE('',#1272,#1273);
#1272 = CARTESIAN_POINT('',(-6.,-2.,-4.75));
#1273 = VECTOR('',#1274,1.);
#1274 = DIRECTION('',(0.,0.,1.));
#1275 = PLANE('',#1276);
#1276 = AXIS2_PLACEMENT_3D('',#1277,#1278,#1279);
#1277 = CARTESIAN_POINT('',(-6.,-9.015780150965,-4.75));
#1278 = DIRECTION('',(-1.,0.,0.));
#1279 = DIRECTION('',(0.,1.,0.));
#1280 = ADVANCED_FACE('',(#1281,#1293),#1296,.F.);
#1281 = FACE_BOUND('',#1282,.F.);
#1282 = EDGE_LOOP('',(#1283,#1284,#1285,#1286,#1287,#1288,#1289,#1290,
    #1291,#1292));
#1283 = ORIENTED_EDGE('',*,*,#357,.F.);
#1284 = ORIENTED_EDGE('',*,*,#462,.T.);
#1285 = ORIENTED_EDGE('',*,*,#505,.T.);
#1286 = ORIENTED_EDGE('',*,*,#487,.F.);
#1287 = ORIENTED_EDGE('',*,*,#414,.T.);
#1288 = ORIENTED_EDGE('',*,*,#1226,.F.);
#1289 = ORIENTED_EDGE('',*,*,#607,.F.);
#1290 = ORIENTED_EDGE('',*,*,#1248,.F.);
#1291 = ORIENTED_EDGE('',*,*,#1099,.F.);
#1292 = ORIENTED_EDGE('',*,*,#1270,.F.);
#1293 = FACE_BOUND('',#1294,.F.);
#1294 = EDGE_LOOP('',(#1295));
#1295 = ORIENTED_EDGE('',*,*,#641,.T.);
#1296 = PLANE('',#1297);
#1297 = AXIS2_PLACEMENT_3D('',#1298,#1299,#1300);
#1298 = CARTESIAN_POINT('',(-12.5,-2.,-4.75));
#1299 = DIRECTION('',(0.,1.,0.));
#1300 = DIRECTION('',(1.,0.,0.));
#1301 = ADVANCED_FACE('',(#1302),#1306,.F.);
#1302 = FACE_BOUND('',#1303,.T.);
#1303 = EDGE_LOOP('',(#1304,#1305));
#1304 = ORIENTED_EDGE('',*,*,#1170,.T.);
#1305 = ORIENTED_EDGE('',*,*,#539,.T.);
#1306 = CONICAL_SURFACE('',#1307,1.2,0.785398163397);
#1307 = AXIS2_PLACEMENT_3D('',#1308,#1309,#1310);
#1308 = CARTESIAN_POINT('',(6.35,-2.,2.54));
#1309 = DIRECTION('',(0.,1.,-2.22044604925E-16));
#1310 = DIRECTION('',(1.,0.,0.));
#1311 = ADVANCED_FACE('',(#1312),#1322,.F.);
#1312 = FACE_BOUND('',#1313,.T.);
#1313 = EDGE_LOOP('',(#1314,#1320,#1321));
#1314 = ORIENTED_EDGE('',*,*,#1315,.F.);
#1315 = EDGE_CURVE('',#589,#1233,#1316,.T.);
#1316 = LINE('',#1317,#1318);
#1317 = CARTESIAN_POINT('',(-5.15,-2.,2.54));
#1318 = VECTOR('',#1319,1.);
#1319 = DIRECTION('',(-0.707106781187,-0.707106781187,1.570092458684E-16
    ));
#1320 = ORIENTED_EDGE('',*,*,#616,.T.);
#1321 = ORIENTED_EDGE('',*,*,#1241,.F.);
#1322 = CONICAL_SURFACE('',#1323,1.2,0.785398163397);
#1323 = AXIS2_PLACEMENT_3D('',#1324,#1325,#1326);
#1324 = CARTESIAN_POINT('',(-6.35,-2.,2.54));
#1325 = DIRECTION('',(0.,1.,-2.22044604925E-16));
#1326 = DIRECTION('',(1.,0.,0.));
#1327 = ADVANCED_FACE('',(#1328),#1333,.F.);
#1328 = FACE_BOUND('',#1329,.T.);
#1329 = EDGE_LOOP('',(#1330,#1331,#1332));
#1330 = ORIENTED_EDGE('',*,*,#598,.T.);
#1331 = ORIENTED_EDGE('',*,*,#1315,.T.);
#1332 = ORIENTED_EDGE('',*,*,#1232,.F.);
#1333 = CONICAL_SURFACE('',#1334,1.2,0.785398163397);
#1334 = AXIS2_PLACEMENT_3D('',#1335,#1336,#1337);
#1335 = CARTESIAN_POINT('',(-6.35,-2.,2.54));
#1336 = DIRECTION('',(0.,1.,-2.22044604925E-16));
#1337 = DIRECTION('',(1.,0.,0.));
#1338 = ADVANCED_FACE('',(#1339),#1343,.F.);
#1339 = FACE_BOUND('',#1340,.T.);
#1340 = EDGE_LOOP('',(#1341,#1342));
#1341 = ORIENTED_EDGE('',*,*,#1178,.T.);
#1342 = ORIENTED_EDGE('',*,*,#675,.T.);
#1343 = CONICAL_SURFACE('',#1344,1.2,0.785398163397);
#1344 = AXIS2_PLACEMENT_3D('',#1345,#1346,#1347);
#1345 = CARTESIAN_POINT('',(6.35,-2.,-2.54));
#1346 = DIRECTION('',(0.,1.,-2.22044604925E-16));
#1347 = DIRECTION('',(1.,0.,0.));
#1348 = ADVANCED_FACE('',(#1349),#1359,.F.);
#1349 = FACE_BOUND('',#1350,.T.);
#1350 = EDGE_LOOP('',(#1351,#1357,#1358));
#1351 = ORIENTED_EDGE('',*,*,#1352,.F.);
#1352 = EDGE_CURVE('',#709,#1049,#1353,.T.);
#1353 = LINE('',#1354,#1355);
#1354 = CARTESIAN_POINT('',(5.01,-2.,2.54));
#1355 = VECTOR('',#1356,1.);
#1356 = DIRECTION('',(-0.707106781187,-0.707106781187,1.570092458684E-16
    ));
#1357 = ORIENTED_EDGE('',*,*,#708,.T.);
#1358 = ORIENTED_EDGE('',*,*,#1056,.T.);
#1359 = CONICAL_SURFACE('',#1360,1.2,0.785398163397);
#1360 = AXIS2_PLACEMENT_3D('',#1361,#1362,#1363);
#1361 = CARTESIAN_POINT('',(3.81,-2.,2.54));
#1362 = DIRECTION('',(0.,1.,-2.22044604925E-16));
#1363 = DIRECTION('',(1.,0.,0.));
#1364 = ADVANCED_FACE('',(#1365),#1376,.F.);
#1365 = FACE_BOUND('',#1366,.T.);
#1366 = EDGE_LOOP('',(#1367,#1368,#1369,#1375));
#1367 = ORIENTED_EDGE('',*,*,#717,.T.);
#1368 = ORIENTED_EDGE('',*,*,#1352,.T.);
#1369 = ORIENTED_EDGE('',*,*,#1370,.T.);
#1370 = EDGE_CURVE('',#1049,#752,#1371,.T.);
#1371 = LINE('',#1372,#1373);
#1372 = CARTESIAN_POINT('',(5.01,-2.,2.54));
#1373 = VECTOR('',#1374,1.);
#1374 = DIRECTION('',(-0.707106781187,-0.707106781187,1.570092458684E-16
    ));
#1375 = ORIENTED_EDGE('',*,*,#759,.T.);
#1376 = CONICAL_SURFACE('',#1377,1.2,0.785398163397);
#1377 = AXIS2_PLACEMENT_3D('',#1378,#1379,#1380);
#1378 = CARTESIAN_POINT('',(3.81,-2.,2.54));
#1379 = DIRECTION('',(0.,1.,-2.22044604925E-16));
#1380 = DIRECTION('',(1.,0.,0.));
#1381 = ADVANCED_FACE('',(#1382),#1387,.F.);
#1382 = FACE_BOUND('',#1383,.T.);
#1383 = EDGE_LOOP('',(#1384,#1385,#1386));
#1384 = ORIENTED_EDGE('',*,*,#783,.T.);
#1385 = ORIENTED_EDGE('',*,*,#741,.T.);
#1386 = ORIENTED_EDGE('',*,*,#822,.T.);
#1387 = CONICAL_SURFACE('',#1388,1.2,0.785398163397);
#1388 = AXIS2_PLACEMENT_3D('',#1389,#1390,#1391);
#1389 = CARTESIAN_POINT('',(1.27,-2.,2.54));
#1390 = DIRECTION('',(0.,1.,-2.22044604925E-16));
#1391 = DIRECTION('',(1.,0.,0.));
#1392 = ADVANCED_FACE('',(#1393),#1418,.T.);
#1393 = FACE_BOUND('',#1394,.T.);
#1394 = EDGE_LOOP('',(#1395,#1396,#1402,#1403,#1404,#1405,#1411,#1412));
#1395 = ORIENTED_EDGE('',*,*,#932,.T.);
#1396 = ORIENTED_EDGE('',*,*,#1397,.T.);
#1397 = EDGE_CURVE('',#935,#879,#1398,.T.);
#1398 = LINE('',#1399,#1400);
#1399 = CARTESIAN_POINT('',(-4.65,-3.2,2.54));
#1400 = VECTOR('',#1401,1.);
#1401 = DIRECTION('',(1.,0.,0.));
#1402 = ORIENTED_EDGE('',*,*,#886,.T.);
#1403 = ORIENTED_EDGE('',*,*,#816,.T.);
#1404 = ORIENTED_EDGE('',*,*,#751,.T.);
#1405 = ORIENTED_EDGE('',*,*,#1406,.T.);
#1406 = EDGE_CURVE('',#752,#1041,#1407,.T.);
#1407 = LINE('',#1408,#1409);
#1408 = CARTESIAN_POINT('',(-4.65,-3.2,2.54));
#1409 = VECTOR('',#1410,1.);
#1410 = DIRECTION('',(1.,0.,0.));
#1411 = ORIENTED_EDGE('',*,*,#1040,.T.);
#1412 = ORIENTED_EDGE('',*,*,#1413,.T.);
#1413 = EDGE_CURVE('',#1033,#933,#1414,.T.);
#1414 = LINE('',#1415,#1416);
#1415 = CARTESIAN_POINT('',(4.65,-3.2,2.539));
#1416 = VECTOR('',#1417,1.);
#1417 = DIRECTION('',(-1.,5.301484578098E-33,2.387576397043E-17));
#1418 = PLANE('',#1419);
#1419 = AXIS2_PLACEMENT_3D('',#1420,#1421,#1422);
#1420 = CARTESIAN_POINT('',(0.,-3.2,1.91));
#1421 = DIRECTION('',(0.,1.,0.));
#1422 = DIRECTION('',(0.,0.,1.));
#1423 = ADVANCED_FACE('',(#1424),#1429,.F.);
#1424 = FACE_BOUND('',#1425,.T.);
#1425 = EDGE_LOOP('',(#1426,#1427,#1428));
#1426 = ORIENTED_EDGE('',*,*,#846,.T.);
#1427 = ORIENTED_EDGE('',*,*,#806,.T.);
#1428 = ORIENTED_EDGE('',*,*,#892,.T.);
#1429 = CONICAL_SURFACE('',#1430,1.2,0.785398163397);
#1430 = AXIS2_PLACEMENT_3D('',#1431,#1432,#1433);
#1431 = CARTESIAN_POINT('',(-1.27,-2.,2.54));
#1432 = DIRECTION('',(0.,1.,-2.22044604925E-16));
#1433 = DIRECTION('',(1.,0.,0.));
#1434 = ADVANCED_FACE('',(#1435),#1446,.F.);
#1435 = FACE_BOUND('',#1436,.T.);
#1436 = EDGE_LOOP('',(#1437,#1438,#1439,#1445));
#1437 = ORIENTED_EDGE('',*,*,#909,.T.);
#1438 = ORIENTED_EDGE('',*,*,#878,.T.);
#1439 = ORIENTED_EDGE('',*,*,#1440,.T.);
#1440 = EDGE_CURVE('',#879,#975,#1441,.T.);
#1441 = LINE('',#1442,#1443);
#1442 = CARTESIAN_POINT('',(-3.81,-3.2,2.54));
#1443 = VECTOR('',#1444,1.);
#1444 = DIRECTION('',(-0.707106781187,0.707106781187,-1.570092458684E-16
    ));
#1445 = ORIENTED_EDGE('',*,*,#974,.T.);
#1446 = CONICAL_SURFACE('',#1447,1.2,0.785398163397);
#1447 = AXIS2_PLACEMENT_3D('',#1448,#1449,#1450);
#1448 = CARTESIAN_POINT('',(-3.81,-2.,2.54));
#1449 = DIRECTION('',(0.,1.,-2.22044604925E-16));
#1450 = DIRECTION('',(1.,0.,0.));
#1451 = ADVANCED_FACE('',(#1452),#1463,.F.);
#1452 = FACE_BOUND('',#1453,.F.);
#1453 = EDGE_LOOP('',(#1454,#1455,#1456,#1457));
#1454 = ORIENTED_EDGE('',*,*,#1032,.F.);
#1455 = ORIENTED_EDGE('',*,*,#1413,.T.);
#1456 = ORIENTED_EDGE('',*,*,#942,.T.);
#1457 = ORIENTED_EDGE('',*,*,#1458,.F.);
#1458 = EDGE_CURVE('',#1023,#943,#1459,.T.);
#1459 = LINE('',#1460,#1461);
#1460 = CARTESIAN_POINT('',(4.65,-4.459,1.28));
#1461 = VECTOR('',#1462,1.);
#1462 = DIRECTION('',(-1.,5.301484578098E-33,2.387576397043E-17));
#1463 = PLANE('',#1464);
#1464 = AXIS2_PLACEMENT_3D('',#1465,#1466,#1467);
#1465 = CARTESIAN_POINT('',(4.65,-3.8295,1.9095));
#1466 = DIRECTION('',(-1.409604569952E-17,-0.707106781187,0.707106781187
    ));
#1467 = DIRECTION('',(-1.,2.190529148727E-17,1.970472483168E-18));
#1468 = ADVANCED_FACE('',(#1469),#1474,.F.);
#1469 = FACE_BOUND('',#1470,.F.);
#1470 = EDGE_LOOP('',(#1471,#1472,#1473));
#1471 = ORIENTED_EDGE('',*,*,#1440,.T.);
#1472 = ORIENTED_EDGE('',*,*,#983,.T.);
#1473 = ORIENTED_EDGE('',*,*,#1397,.T.);
#1474 = PLANE('',#1475);
#1475 = AXIS2_PLACEMENT_3D('',#1476,#1477,#1478);
#1476 = CARTESIAN_POINT('',(-4.65,5.639932965096E-16,2.54));
#1477 = DIRECTION('',(0.,2.22044604925E-16,1.));
#1478 = DIRECTION('',(1.,0.,0.));
#1479 = ADVANCED_FACE('',(#1480),#1486,.F.);
#1480 = FACE_BOUND('',#1481,.F.);
#1481 = EDGE_LOOP('',(#1482,#1483,#1484,#1485));
#1482 = ORIENTED_EDGE('',*,*,#1022,.F.);
#1483 = ORIENTED_EDGE('',*,*,#1458,.T.);
#1484 = ORIENTED_EDGE('',*,*,#950,.T.);
#1485 = ORIENTED_EDGE('',*,*,#1207,.T.);
#1486 = PLANE('',#1487);
#1487 = AXIS2_PLACEMENT_3D('',#1488,#1489,#1490);
#1488 = CARTESIAN_POINT('',(-4.65,2.84217094304E-16,1.28));
#1489 = DIRECTION('',(0.,2.22044604925E-16,1.));
#1490 = DIRECTION('',(1.,0.,0.));
#1491 = ADVANCED_FACE('',(#1492),#1497,.F.);
#1492 = FACE_BOUND('',#1493,.F.);
#1493 = EDGE_LOOP('',(#1494,#1495,#1496));
#1494 = ORIENTED_EDGE('',*,*,#1370,.T.);
#1495 = ORIENTED_EDGE('',*,*,#1406,.T.);
#1496 = ORIENTED_EDGE('',*,*,#1048,.F.);
#1497 = PLANE('',#1498);
#1498 = AXIS2_PLACEMENT_3D('',#1499,#1500,#1501);
#1499 = CARTESIAN_POINT('',(-4.65,5.639932965096E-16,2.54));
#1500 = DIRECTION('',(0.,2.22044604925E-16,1.));
#1501 = DIRECTION('',(1.,0.,0.));
#1502 = ADVANCED_FACE('',(#1503),#1513,.F.);
#1503 = FACE_BOUND('',#1504,.T.);
#1504 = EDGE_LOOP('',(#1505,#1511,#1512));
#1505 = ORIENTED_EDGE('',*,*,#1506,.F.);
#1506 = EDGE_CURVE('',#1081,#1255,#1507,.T.);
#1507 = LINE('',#1508,#1509);
#1508 = CARTESIAN_POINT('',(-5.15,-2.,-2.54));
#1509 = VECTOR('',#1510,1.);
#1510 = DIRECTION('',(-0.707106781187,-0.707106781187,1.570092458684E-16
    ));
#1511 = ORIENTED_EDGE('',*,*,#1108,.T.);
#1512 = ORIENTED_EDGE('',*,*,#1263,.F.);
#1513 = CONICAL_SURFACE('',#1514,1.2,0.785398163397);
#1514 = AXIS2_PLACEMENT_3D('',#1515,#1516,#1517);
#1515 = CARTESIAN_POINT('',(-6.35,-2.,-2.54));
#1516 = DIRECTION('',(0.,1.,-2.22044604925E-16));
#1517 = DIRECTION('',(1.,0.,0.));
#1518 = ADVANCED_FACE('',(#1519),#1524,.F.);
#1519 = FACE_BOUND('',#1520,.T.);
#1520 = EDGE_LOOP('',(#1521,#1522,#1523));
#1521 = ORIENTED_EDGE('',*,*,#1090,.T.);
#1522 = ORIENTED_EDGE('',*,*,#1506,.T.);
#1523 = ORIENTED_EDGE('',*,*,#1254,.F.);
#1524 = CONICAL_SURFACE('',#1525,1.2,0.785398163397);
#1525 = AXIS2_PLACEMENT_3D('',#1526,#1527,#1528);
#1526 = CARTESIAN_POINT('',(-6.35,-2.,-2.54));
#1527 = DIRECTION('',(0.,1.,-2.22044604925E-16));
#1528 = DIRECTION('',(1.,0.,0.));
#1529 = ( GEOMETRIC_REPRESENTATION_CONTEXT(3) 
GLOBAL_UNCERTAINTY_ASSIGNED_CONTEXT((#1533)) 
GLOBAL_UNIT_ASSIGNED_CONTEXT((#1530,#1531,#1532)) REPRESENTATION_CONTEXT
('Context #1','3D Context with UNIT and UNCERTAINTY') );
#1530 = ( LENGTH_UNIT() NAMED_UNIT(*) SI_UNIT(.MILLI.,.METRE.) );
#1531 = ( NAMED_UNIT(*) PLANE_ANGLE_UNIT() SI_UNIT($,.RADIAN.) );
#1532 = ( NAMED_UNIT(*) SI_UNIT($,.STERADIAN.) SOLID_ANGLE_UNIT() );
#1533 = UNCERTAINTY_MEASURE_WITH_UNIT(LENGTH_MEASURE(1.E-07),#1530,
  'distance_accuracy_value','confusion accuracy');
#1534 = PRODUCT_RELATED_PRODUCT_CATEGORY('part',$,(#7));
#1535 = MECHANICAL_DESIGN_GEOMETRIC_PRESENTATION_REPRESENTATION('',(
    #1536),#1529);
#1536 = STYLED_ITEM('color',(#1537),#15);
#1537 = PRESENTATION_STYLE_ASSIGNMENT((#1538,#1544));
#1538 = SURFACE_STYLE_USAGE(.BOTH.,#1539);
#1539 = SURFACE_SIDE_STYLE('',(#1540));
#1540 = SURFACE_STYLE_FILL_AREA(#1541);
#1541 = FILL_AREA_STYLE('',(#1542));
#1542 = FILL_AREA_STYLE_COLOUR('',#1543);
#1543 = COLOUR_RGB('',0.678431390124,0.709803936702,0.741176476869);
#1544 = CURVE_STYLE('',#1545,POSITIVE_LENGTH_MEASURE(0.1),#1546);
#1545 = DRAUGHTING_PRE_DEFINED_CURVE_FONT('continuous');
#1546 = COLOUR_RGB('',9.803921802644E-02,9.803921802644E-02,
  9.803921802644E-02);
ENDSEC;
END-ISO-10303-21;
